<mxfile host="app.diagrams.net" modified="2023-11-24T21:48:49.132Z" agent="Mozilla/5.0 (Windows NT 10.0; Win64; x64) AppleWebKit/537.36 (KHTML, like Gecko) Chrome/119.0.0.0 Safari/537.36" etag="ge2bySoGpIF-YUB2K4ya" version="22.1.3" type="github">
  <diagram name="Página-1" id="5_UnakYwn7JRWIVbTvsN">
    <mxGraphModel dx="3088" dy="758" grid="1" gridSize="10" guides="1" tooltips="1" connect="1" arrows="1" fold="1" page="1" pageScale="1" pageWidth="827" pageHeight="1169" math="0" shadow="0">
      <root>
        <mxCell id="0" />
        <mxCell id="1" parent="0" />
        <mxCell id="Q4L-rpPanq5J2Qk0i0yB-43" value="" style="rounded=0;whiteSpace=wrap;html=1;" vertex="1" parent="1">
          <mxGeometry x="-1350" y="220" width="950" height="639" as="geometry" />
        </mxCell>
        <mxCell id="Q4L-rpPanq5J2Qk0i0yB-21" style="edgeStyle=orthogonalEdgeStyle;rounded=0;orthogonalLoop=1;jettySize=auto;html=1;" edge="1" parent="1" source="Q4L-rpPanq5J2Qk0i0yB-2" target="Q4L-rpPanq5J2Qk0i0yB-6">
          <mxGeometry relative="1" as="geometry" />
        </mxCell>
        <mxCell id="Q4L-rpPanq5J2Qk0i0yB-2" value="&lt;b&gt;Athena&lt;br&gt;&lt;br&gt;&lt;/b&gt;" style="sketch=0;points=[[0,0,0],[0.25,0,0],[0.5,0,0],[0.75,0,0],[1,0,0],[0,1,0],[0.25,1,0],[0.5,1,0],[0.75,1,0],[1,1,0],[0,0.25,0],[0,0.5,0],[0,0.75,0],[1,0.25,0],[1,0.5,0],[1,0.75,0]];outlineConnect=0;fontColor=#232F3E;fillColor=#8C4FFF;strokeColor=#ffffff;dashed=0;verticalLabelPosition=bottom;verticalAlign=top;align=center;html=1;fontSize=12;fontStyle=0;aspect=fixed;shape=mxgraph.aws4.resourceIcon;resIcon=mxgraph.aws4.athena;" vertex="1" parent="1">
          <mxGeometry x="-995.5" y="644" width="50" height="50" as="geometry" />
        </mxCell>
        <mxCell id="Q4L-rpPanq5J2Qk0i0yB-6" value="Amazon S3" style="sketch=0;outlineConnect=0;fontColor=#232F3E;gradientColor=none;strokeColor=#ffffff;fillColor=#232F3E;dashed=0;verticalLabelPosition=middle;verticalAlign=bottom;align=center;html=1;whiteSpace=wrap;fontSize=10;fontStyle=1;spacing=3;shape=mxgraph.aws4.productIcon;prIcon=mxgraph.aws4.s3;" vertex="1" parent="1">
          <mxGeometry x="-997" y="745" width="52.5" height="85" as="geometry" />
        </mxCell>
        <mxCell id="Q4L-rpPanq5J2Qk0i0yB-42" style="edgeStyle=orthogonalEdgeStyle;rounded=0;orthogonalLoop=1;jettySize=auto;html=1;" edge="1" parent="1" source="Q4L-rpPanq5J2Qk0i0yB-9">
          <mxGeometry relative="1" as="geometry">
            <mxPoint x="-810" y="369" as="targetPoint" />
          </mxGeometry>
        </mxCell>
        <mxCell id="Q4L-rpPanq5J2Qk0i0yB-9" value="DynamoDB &lt;br&gt;parametros_descarga" style="sketch=0;points=[[0,0,0],[0.25,0,0],[0.5,0,0],[0.75,0,0],[1,0,0],[0,1,0],[0.25,1,0],[0.5,1,0],[0.75,1,0],[1,1,0],[0,0.25,0],[0,0.5,0],[0,0.75,0],[1,0.25,0],[1,0.5,0],[1,0.75,0]];outlineConnect=0;fontColor=#232F3E;fillColor=#C925D1;strokeColor=#ffffff;dashed=0;verticalLabelPosition=bottom;verticalAlign=top;align=center;html=1;fontSize=12;fontStyle=0;aspect=fixed;shape=mxgraph.aws4.resourceIcon;resIcon=mxgraph.aws4.dynamodb;" vertex="1" parent="1">
          <mxGeometry x="-996" y="379" width="53" height="53" as="geometry" />
        </mxCell>
        <mxCell id="Q4L-rpPanq5J2Qk0i0yB-22" value="" style="edgeStyle=orthogonalEdgeStyle;rounded=0;orthogonalLoop=1;jettySize=auto;html=1;" edge="1" parent="1" source="Q4L-rpPanq5J2Qk0i0yB-10" target="Q4L-rpPanq5J2Qk0i0yB-2">
          <mxGeometry relative="1" as="geometry" />
        </mxCell>
        <mxCell id="Q4L-rpPanq5J2Qk0i0yB-36" value="extraer data de las tablas" style="edgeLabel;html=1;align=center;verticalAlign=middle;resizable=0;points=[];" vertex="1" connectable="0" parent="Q4L-rpPanq5J2Qk0i0yB-22">
          <mxGeometry x="0.0584" y="3" relative="1" as="geometry">
            <mxPoint as="offset" />
          </mxGeometry>
        </mxCell>
        <mxCell id="Q4L-rpPanq5J2Qk0i0yB-28" value="unificar archivos de descarga" style="edgeStyle=orthogonalEdgeStyle;rounded=0;orthogonalLoop=1;jettySize=auto;html=1;exitX=1;exitY=0.5;exitDx=0;exitDy=0;exitPerimeter=0;" edge="1" parent="1" source="Q4L-rpPanq5J2Qk0i0yB-10" target="Q4L-rpPanq5J2Qk0i0yB-11">
          <mxGeometry relative="1" as="geometry" />
        </mxCell>
        <mxCell id="Q4L-rpPanq5J2Qk0i0yB-10" value="&lt;b&gt;Glue job&lt;/b&gt;" style="sketch=0;points=[[0,0,0],[0.25,0,0],[0.5,0,0],[0.75,0,0],[1,0,0],[0,1,0],[0.25,1,0],[0.5,1,0],[0.75,1,0],[1,1,0],[0,0.25,0],[0,0.5,0],[0,0.75,0],[1,0.25,0],[1,0.5,0],[1,0.75,0]];outlineConnect=0;fontColor=#232F3E;fillColor=#8C4FFF;strokeColor=#ffffff;dashed=0;verticalLabelPosition=bottom;verticalAlign=top;align=center;html=1;fontSize=12;fontStyle=0;aspect=fixed;shape=mxgraph.aws4.resourceIcon;resIcon=mxgraph.aws4.glue;" vertex="1" parent="1">
          <mxGeometry x="-995" y="526" width="50" height="50" as="geometry" />
        </mxCell>
        <mxCell id="Q4L-rpPanq5J2Qk0i0yB-31" style="edgeStyle=orthogonalEdgeStyle;rounded=0;orthogonalLoop=1;jettySize=auto;html=1;" edge="1" parent="1" source="Q4L-rpPanq5J2Qk0i0yB-11" target="Q4L-rpPanq5J2Qk0i0yB-30">
          <mxGeometry relative="1" as="geometry" />
        </mxCell>
        <mxCell id="Q4L-rpPanq5J2Qk0i0yB-11" value="Bucket S3" style="sketch=0;outlineConnect=0;fontColor=#232F3E;gradientColor=none;strokeColor=#ffffff;fillColor=#232F3E;dashed=0;verticalLabelPosition=middle;verticalAlign=bottom;align=center;html=1;whiteSpace=wrap;fontSize=10;fontStyle=1;spacing=3;shape=mxgraph.aws4.productIcon;prIcon=mxgraph.aws4.s3;" vertex="1" parent="1">
          <mxGeometry x="-768" y="530" width="52.5" height="71" as="geometry" />
        </mxCell>
        <mxCell id="Q4L-rpPanq5J2Qk0i0yB-33" style="edgeStyle=orthogonalEdgeStyle;rounded=0;orthogonalLoop=1;jettySize=auto;html=1;" edge="1" parent="1" source="Q4L-rpPanq5J2Qk0i0yB-13" target="Q4L-rpPanq5J2Qk0i0yB-14">
          <mxGeometry relative="1" as="geometry" />
        </mxCell>
        <mxCell id="Q4L-rpPanq5J2Qk0i0yB-13" value="&lt;b&gt;Event Bridge&lt;/b&gt;" style="sketch=0;points=[[0,0,0],[0.25,0,0],[0.5,0,0],[0.75,0,0],[1,0,0],[0,1,0],[0.25,1,0],[0.5,1,0],[0.75,1,0],[1,1,0],[0,0.25,0],[0,0.5,0],[0,0.75,0],[1,0.25,0],[1,0.5,0],[1,0.75,0]];outlineConnect=0;fontColor=#232F3E;fillColor=#E7157B;strokeColor=#ffffff;dashed=0;verticalLabelPosition=bottom;verticalAlign=top;align=center;html=1;fontSize=12;fontStyle=0;aspect=fixed;shape=mxgraph.aws4.resourceIcon;resIcon=mxgraph.aws4.eventbridge;" vertex="1" parent="1">
          <mxGeometry x="-1274" y="526" width="50" height="50" as="geometry" />
        </mxCell>
        <mxCell id="Q4L-rpPanq5J2Qk0i0yB-14" value="&lt;b&gt;Lambda&lt;/b&gt;" style="sketch=0;points=[[0,0,0],[0.25,0,0],[0.5,0,0],[0.75,0,0],[1,0,0],[0,1,0],[0.25,1,0],[0.5,1,0],[0.75,1,0],[1,1,0],[0,0.25,0],[0,0.5,0],[0,0.75,0],[1,0.25,0],[1,0.5,0],[1,0.75,0]];outlineConnect=0;fontColor=#232F3E;fillColor=#ED7100;strokeColor=#ffffff;dashed=0;verticalLabelPosition=bottom;verticalAlign=top;align=center;html=1;fontSize=12;fontStyle=0;aspect=fixed;shape=mxgraph.aws4.resourceIcon;resIcon=mxgraph.aws4.lambda;" vertex="1" parent="1">
          <mxGeometry x="-1134" y="525" width="50" height="50" as="geometry" />
        </mxCell>
        <mxCell id="Q4L-rpPanq5J2Qk0i0yB-19" style="edgeStyle=orthogonalEdgeStyle;rounded=0;orthogonalLoop=1;jettySize=auto;html=1;entryX=0;entryY=0.5;entryDx=0;entryDy=0;entryPerimeter=0;" edge="1" parent="1" source="Q4L-rpPanq5J2Qk0i0yB-14" target="Q4L-rpPanq5J2Qk0i0yB-10">
          <mxGeometry relative="1" as="geometry" />
        </mxCell>
        <mxCell id="Q4L-rpPanq5J2Qk0i0yB-30" value="&lt;b&gt;SQS&lt;/b&gt;" style="outlineConnect=0;dashed=0;verticalLabelPosition=bottom;verticalAlign=top;align=center;html=1;shape=mxgraph.aws3.sqs;fillColor=#D9A741;gradientColor=none;" vertex="1" parent="1">
          <mxGeometry x="-590" y="540" width="50" height="50" as="geometry" />
        </mxCell>
        <mxCell id="Q4L-rpPanq5J2Qk0i0yB-32" style="edgeStyle=orthogonalEdgeStyle;rounded=0;orthogonalLoop=1;jettySize=auto;html=1;entryX=0;entryY=0.5;entryDx=0;entryDy=0;entryPerimeter=0;" edge="1" parent="1" source="Q4L-rpPanq5J2Qk0i0yB-14" target="Q4L-rpPanq5J2Qk0i0yB-9">
          <mxGeometry relative="1" as="geometry">
            <Array as="points">
              <mxPoint x="-1110" y="405" />
            </Array>
          </mxGeometry>
        </mxCell>
        <mxCell id="Q4L-rpPanq5J2Qk0i0yB-35" value="&lt;div style=&quot;text-align: center;&quot;&gt;&lt;span style=&quot;font-size: 11px; background-color: rgb(255, 255, 255);&quot;&gt;encolar evento&lt;/span&gt;&lt;/div&gt;" style="text;whiteSpace=wrap;html=1;" vertex="1" parent="1">
          <mxGeometry x="-680" y="540" width="60" height="30" as="geometry" />
        </mxCell>
        <mxCell id="Q4L-rpPanq5J2Qk0i0yB-38" value="&lt;div style=&quot;text-align: center;&quot;&gt;&lt;span style=&quot;font-size: 11px; background-color: rgb(255, 255, 255);&quot;&gt;lanzar ejecusión&lt;/span&gt;&lt;/div&gt;" style="text;whiteSpace=wrap;html=1;" vertex="1" parent="1">
          <mxGeometry x="-1070" y="526" width="60" height="30" as="geometry" />
        </mxCell>
        <mxCell id="Q4L-rpPanq5J2Qk0i0yB-39" value="&lt;div style=&quot;text-align: center;&quot;&gt;&lt;span style=&quot;font-size: 11px; background-color: rgb(255, 255, 255);&quot;&gt;lanzar evento&lt;/span&gt;&lt;/div&gt;" style="text;whiteSpace=wrap;html=1;" vertex="1" parent="1">
          <mxGeometry x="-1210" y="526" width="60" height="30" as="geometry" />
        </mxCell>
        <mxCell id="Q4L-rpPanq5J2Qk0i0yB-41" value="" style="shape=image;verticalLabelPosition=bottom;labelBackgroundColor=default;verticalAlign=top;aspect=fixed;imageAspect=0;image=data:image/png,iVBORw0KGgoAAAANSUhEUgAABeIAAAFbCAYAAAC59f6cAAAAAXNSR0IArs4c6QAAAARnQU1BAACxjwv8YQUAAAAJcEhZcwAAFxEAABcRAcom8z8AAKKuSURBVHhe7d0J2H3loP//YygyNGg8xhKihNKkVGSmUJEhQ4YiolEDKiXVoQEl9IuizBwyJGMcYxMRGcv0O8j4c11n+DvHaf+/7326t3vfz73WXnsNe69nP+91Xa+rvs+61zx/1r3v9Q92dnZ2dnZ2dnZ2dnZ2dnZ2dnZ2dnZ2dnZ2dnZ2dnZ2dnZ2dnZ2dnZ2dnZ2dnZ2dnZ2dnZ2dnZ2dnZ2dnZ2dnZ2dnZ2dnZ2dnZ2dnZ2dnZ2dnZ2dnZ2dnZ2dnZ2dnaz62666aZXr/LnVX61ymWSOnf9KhxzP4j+JkkB5wbPEZLquHKVP61y42Aw+FL0d0mq6rpVOI/c4HlE6sw1q/xxlf+7ypdv/pukxfLtVf6wyndWWf/mGH4YxJ+36gJrZ2dnZ2dnZ2dnZ2dnZ2dnZ2dnZ2dnZ9dCd9NNN/1l1X82ujmGHwbxB9PjT3/60+Dzn/+8pI79+te/5pAbXH/99dn+klY2zg2eIyTVcfXVV3OzP/jP//zPwRe+8IVsGUkq89Of/nR4HvnNb34z+OIXv5gtI6mZa6+9dvC3v/1t8Oc//3lw2WWXZctIWt44zv/7v/+ba+o1qx7v17s5hv+Hf1j1j/144P/tb387eM973iOpYyFk++53v5vtL2ll49zgOUJSHZ/73OcG//M//zP4t3/7t8H73ve+bBlJKnPNNdcMzyM33HCD5xGpI1/72teGAd3vfve7wQc/+MFsGUnL21e/+tXBX//6V4L4r62y7s0xvEG8NGsG8ZLKGMRLqssgXlJTBvFS9wzipcVnEC/1hEG8pDIG8ZLqMoiX1JRBvNQ9g3hp8RnESz1hEC+pjEG8pLoM4iU1ZRAvdc8gXlp8BvFSTxjESypjEC+pLoN4SU0ZxEvdM4iXFp9BvNQTBvGSyhjES6rLIF5SUwbxUvcM4qXFZxAv9YRBvKQyBvGS6jKIl9SUQbzUPYN4afEZxEs9YRAvqYxBvKS6DOIlNWUQL3XPIF5afAbxUk8YxEsqYxAvqS6DeElNGcRL3TOIlxafQbzUEwbxksoYxEuqyyBeUlMG8VL3DOKlxWcQL/WEQbykMgbxkuoyiJfUlEG81D2DeGnxGcRLPWEQL6mMQbykugziJTVlEC91zyBeWnwG8VJPGMRLKmMQL6kug3hJTRnES90ziJcWn0G81BMG8ZLKGMRLqssgXlJTBvFS9wzipcVnEC/1hEG8pDIG8ZLqmkUQf+KJJw5e/epXD84999xsf0nLm0G81L1ZBPHHH3/88Hr9jne8I9tfUrdWRBB/r3vda8AiBY94xCOy5apqe3wS5h3En3DCCYO99tpr6KCDDsqW0VL/5//8n8Htb3/7sXPCS1/60mxZqQmDeEl1dRXEH3vssYO73e1ug1vc4hZj18EHPOABg3e/+93ZYaS+2WGHHQa3vOUtR/vvlltuOXjXu941Vob7vWc+85nD++SnPe1pg7POOmtw0UUXjZWZxm677bZkmhdccEG2bF/MK4i/973vPXaO2XvvvZdsnzZtuOGGE6f3pje9afDUpz51uD8873nP612g2ff5m9Zmm202drywXH0/XurqKog/5JBDBne5y13G1iO23Xbb0f7BeehWt7rVqN8uu+wyeOc737lkXCr2wAc+cGwd7rzzzr7w0BIrIohff/31RwcC7ne/+2XLVdX2+CTMM4jnjXi8T+OJT3xitqzGvfGNb1wSQHBzmCsrNWEQL6muLoL45z73uUse6GOnnXZao6BSmpU73/nOY/dy66233ljIx//f4x73GCuz1lprNfr1By+r4uOHaZ5//vnZsn0xryD+tre97Wg9Yaedduo0hJ00vXPOOWdwhzvcYazMVltt1Zvtx/zd8Y537O381XG7291ubHl23HHHZb08ZboI4p/0pCcNVltttbF1GHv7298+LMd5Lj4v3ec+9xmcd955S8anYptsssmSdciL3FxZrVwG8TUYxKsL8wziCY7jfdr9ujqDeM2KQbykutoO4t/ylrcM1lhjjbFrX8ogXsvFpCCe2sW5EOv1r3997X3cIL66vgXxRxxxxGD11VcfK8P+0Zdar0Xzt5wDVYP4+k499dQl6y9lEN8eg3hVMbMg/vnPf/4wnAq4gc+V64JBvJaDNoN4jq/4eHv2s59desNKmXifdr+uziBes2IQL7WPh6OnP/3pY9fLRXy4bzuIf/KTnzz2oIm73/3ugz333HPw2Mc+drD55pv7U+yOvPCFLxw2lRH22X/6p3/yhUdDBvHVGMT/b/9c0M2LyT4H8cxfGqiyTDRbE84nNLn01re+tZfnE4P4+h7+8IcPbn3rW4+tP8Jiask/8pGPHDzoQQ8a7RsG8c0ZxKuKmQTxBFWMMsbJPle2CwbxWg7aDOJf9KIXje2joPmZXFnkmqYhjMiV1TiDeM2KQbzUvhe/+MVLAuVjjjlm4YLNtoP4hz70oWPrjZCSACdXVu1KA2G2he3xN1OnaRpePDUJgw3iq+tbEJ9rmma77bbrzfbLNU2Tm7/jjjtucJvb3GasHMF8l+3v12UQX1/a7jvNarGP5MoaxDdnEK8qDOJrMIhXF+YZxIPjlOEI4E8++eRsGS1lEK9ZMYiX2mcQX8/973//sWvfP/7jP/YyvFlEBvHtmxTEg38fffTRw9rDr3jFKxp/wNAgvrq+BfEgyHz5y18+3B9e+cpXDi688MKx/vNWZf4M4vup7SB+mnDdIL45g3hVYRBfg0G8ujDvIF71GMRrVgzipfYZxNdD8B5f++573/saBs+IQXz7qgTxbTOIr66PQfwiMIjvp7aD+PTXG9tuu21hM0oG8c0ZxKuKToN4LliEfwcddNBoRwx22WWXYb+g7OLGjnvooYcOw62gynBBWXDOuJm/MN4jjzxy4oFSN4gnsGP8TIdpnnDCCdlyXQrbBOlyxuuZIJcycf9Jmm6nqvNG+3Vl6471TBnKMswb3vCGbLlJZr292gjiaRue9ffEJz5xbB8FNd3D+s0tC+s49GfZ0/4I488NzzBhu7P+KZeWqYLh2P8YT5jnovmZJX4lwHzxvYv4FwPMW90gnvUYzj/sa9Puq2Gbxecw5nGa9RWOu/AdD/5bdXjKhW2FsL2qHithf0L693AMM/64XyqMI8wH6yKMM5UbHk2XY1baDOKL1j1YH2Gf4r9VfiFTti1D+9us4yoPTaz3sD36cA7gGDn22GPHrm/M35lnnpktX4T1GB+rjG/ah8h0f+e/Yb2n0iA53kZpP9YvgTTj5Bzwute9rjCIPvHEE0ftyb7qVa8ajjdXbpJTTjll8LKXvWw0rkMOOaTS+mB6bI+i5QjjfOlLX1q6HGE8tJGaBvH77rvvcNmYBvtj0ThirJewDtlvGX7a/Tbe18J6OeCAA4b7WpV5KNNWEB/W/brrrju2zmimg1qX9GNfL5tfPuJ61FFHjZaR2sVV1zPCPJx99tljfz/wwAOH4+T6cdZZZ431Q9FwXEsPO+yw0fyw7cr2m2c84xmjfXbaNsLZxvGyh+Vnvs4999zsMEGY/7StX5od4OUR/aqMB023QRc4JzD/4ZrBdjz++OMrzRPrNdRWn3a9omoQz3HOOKuuK2olh/XM8RGf46YN4psuYxu6DOLZJzl/s/3TGtx1g3HGGY5tjteya0KsyvT4N0E267/oPECAGcqkv6CIa6w/61nPGpx00kmFtepZjqc+9anDbU7771WuCWXzF+bruc997pIXe49//OPHzidF84SwDE95ylOG88YxG64DdX4xcvrppw/HF/aB+AVj3SCeD5WGeQzzx/ooW66gaPvx99C2Pv9tu139NoJ4tj/nT+Y9/bA6v2jjuZN+6bqYNogP0+E4Yx2zL4d9IMUHYdtcT5NwTMXbnvN31e3OcRaOOYRjosp3IMqCeMbNuSgcM4cffvjgbW9729Tr5c1vfvPwesA8vuQlLxlug7ov5HPraZpx1Z2XeB+N1wF/5346nBu5l86tH9Yl18B4OzEfVbfTvHUaxD/kIQ8Z7YCT5MJsHjD5e658wEmZlR527pxccM4GJqxMLz4BO2FuXJg2iGdccfnUNttsUzr/beJGM0yXZQ9/Zx3G8xSX4YEwHkeqre1UNG+5UBlsB26EQzkejliXubJcVKqGBfPaXk2DePbp9CalDEFBGJYAOD0W2K7x+CkT92c98Pey9b722muPbaMik45H0K/suOwK6yk3P6xrTv5cHKYJ4llffBQnLh+rspzsf0yjbHs/8IEPLA0KJ80Hx/RrXvOaJcMxbeYvPQ+mOOa40UiHD9if4vXG/HKRJahMPzBFoJYOz3qnRkdcbpLHPOYxows5y8GN/gYbbJAtG0xajllqK4hn28c3iCwj64V1wjpN92ewvblZrzo+bnS5KU+3JQ8suZspEIim5WMcG/vss0/h8G3jvPSc5zxnsM4662TnB9QCPuOMM7LDg3XKA3xunQZ83HLSMrGOJ40nxf4eHjgYPm4flNCUfszfVlttlR3vpptuOrZsHLM8TOTK7rzzzpUeuqusDz4CWvSglFsObvYZL+3f5sbLvsuDeLqO0yC5TNk80S+tURhjv+UhoWh4sK8RiNzpTnfKjgPsa4QUdff/NoL43Adai/BQl84rgeRGG21Uuv0JJ3moi4eLsR7i4fmIJteDe97znmN/Zzzxg2BuOP7Oek9DN3D/wjKE7cY+9uhHPzq7/Pw6gKCsbNvwsF10rAVc01nHhBXp8EXTzuG4KKrRykPqpG1AsM82qLuvTYsXDGlTRzECal6y5I6hsF7L1g3rlesLD/rp8EGVID4NzjfbbLMlZQJeKqS/Ggke9ahHDUOCqkE8y7j11ls3XsY2dBHEH3zwwdn7Wc6dvPTiOJ4miOfvu++++9i1IvWwhz1seEznhkeV6XG+jrcvH71My8TttLM/cJ2kzCMe8Yjs/N3tbncbe1nAeSXdTwKOGa6JRccp17ii+dtiiy1K96fYjkngzTh4Qcw9Qtk4aIec++yyEDdgH7j97W+/ZBzsA4yD81m6j6TzlaJSAfNQdF7B4x73uNL9gOFDWc6bLMtrX/vaJdue+7h02zfRRhCf+0BrEV6Ahesl9/Dxdi0K4lletk1uuxVh/y5b321gvgiUi54nOC7233//7PbiGZTjrezcwUsNzi9lx14uiOelFfeCReuLa3+V+2ieS8ruOXm2r3L9ZvmZn6JxsZ74MHzZfs285O6fAp7ty+aFa2hYTxzrrCM+Pp/ugzxjxPsg+yvjLtu/2U5PeMIThhUvJq2Leek0iJ8UzsZ4UIqHnSbEBxssHj6WBkaUvde97jX2t5yiMC0dX1EQz0NrlemAG37e3uTG06Z03jkZFoWosTi0jXW5nZi3SfsQBy1BL7WvcjdxMcbPSTM3bcx7ezUN4nkQzc1rEX6VEoZlWdL+6f6flmHbsO4nrXe2EW/d43HFGEf8EmYSthHLmhtXm7jwsI5y8xDLHT9F5w7WQ1moF2M5i4L0zTffPDtMitAyNzwvWarcOLHt4pqDHJOTgutUUcjI/hTfxLI/cQOUu2Hmhj8dtiywLRLC/jaXY5baCuLTl0ecGwnZ73KXu4wtc4pjnZqiufHFN0yMj5dUuW2ZW4+ce+9973svKVuEY6PopUCbioLdVNG+QehYFqzG0tA7Rs2UspvuIjxMhOCKbRQ/WLCNuNm9613vOjZMinKEgrnmW1Lx9HLaWB9ly1G2rdh3qaEVb6eqD6jgISBdNgKSohcTOSwT85rbV7bffvtK4yl7ITBJG0E8D/aT9oMgnlfOudMMy/YqCl7TcJMQNxcsE7zHYXQ6HEEp4dqkeeKFItfiolA1YJ4ZZ2778jBYddnBtNLgg3C8yj4SpA/PbW6DNhEyVzkWWSfpMrFeywKTFONgPcTjCKoE8bkyuSCQlx1rrrnmqFwO81JlfJMC5VTZMrah7SCeXx9N2v7s++l+WxTEE5LyrFnlWGFd8QyS28erBPFVysQ1kdm+3Ltwv1N2HDIM1wqumZPu1Qk2cy/u0mmD+Qv7F8NVPZ8QloWAkOUj6JvmfMaLsrKAkRqvPG/khg146ZAeBzsWBPGEeVQqqXrccP3g/iC3H8Trn+1HufQjuGBeqoSoVbURxPPyruo62G+//Ub7bhqC5oJ4/p2Wq4LtXLS/toGa3byUrzJfL3jBC8aO1912223ifhjjvrPol0hpEE9Znl0mbQ+uaUX7ERUx0o/uFuEFEtfWohfyrKdJL9ICXmil57Vp54X7qNy8pNuK8zfP5+m5iXNm2G94iTntdur6BXVdnQbxhB6Mqgp2znjYXJlJimqR8qCWK19FrjZ4Or5cEM8OS1gblwM7TlG4TPl0R29bOu9VA1BuyHPzlis7SdXtVHXeKMf85fqlHvvYx2an3Yft1UaN+Nx8FqEGehi2ThDP8lc9EVIu9xKEFyi58pNw8c897Lap6JcYVeSCeJY1d9PLemR50r+DkD9dTo6fdDyMg/2U82j892nmo0gcvKbheRVs+1xomo6L479of4qDePaj3MsM1uGk8wA3WazPNpdjlroK4llvVc+huWMvDeLLxpeG1mzPOiEz89FlQEQtj3QfiY+zuF8uiOc4y93gsl7S4YMHP/jBS5aJQGXDDTdcUrbKdS8Oj9MAu2wbpbhZr3q8UKstXRcgoMzdsDMPRePPrY8myxFqz4dxldXiSRGGxfPCfjvN8EE6D6BGdrqvsK8RJKf7yryD+GlqZbNcYV6n2YdivIRK9yfCs3hc6b+DSUF80XAptgXXpyplCT7S7Ys0cK2C2s3xuGgHvuq658E3vT+tuw0IKnPHdBv4VULu+GXbca5NQ7B0mdpYr0XjqjK9XHBOCFilokNObny8IG9rGdvQZhBPUFT1OSKVC71Z92lb2AjXmdzxQyCdC766COL5f84nVbYn81W1wkmoMR5PN5024iA+/QVRGSolhOE4Zutc+7iPz+2TNP9R5x4QO2aCeNZ/1XN7jHMmzcvE40J8LJdtP+alb0E814yqFQ6o+Rz2Ie6v42MlF8Tnxs065KVNWThLLeuumtFi209zvkxD79wLlkm4J0v3QaRB/DSoLJcezyxbrsIJ50+2T247sz1yTfQxrmlexKXrqWj4OvOSBvG8FMuttziIZ1xp/0m4JrZ5fLal0yCeEDsXDoGbWvoFaTMY4caM//Lmg+AkBHk8iBEw5cYZjyNIA94YQRfjKqoVzsuESeNj/tMyueYs0lrlVcq0rWxd0I8awEWhYG7eZrWdwrxxE5zrH2P+qanPxTLtx0kiV1OkD9urjTbiedHA/phbT6yX+JgjKArDsd3S8mmImysTsF7Z/gxTtP+k40PuuGN41ivTo4Y0y5SWwaQmk5rgIpMLe1mvLCdy+1eQW9a0FjvDx02/sF9yIxeXAT9Rjcez8cYbj/XnHBXfBDDvnE+Z19z+mQ6PeJ0z7/GxGE+fB/Jw4aUMLwUYhmmG/rnmbuImYQKGq3oTEDdNw8U0Ho7lDAE585Fr2oZAkuUKvzBIl4NfDtRdjlnqKohPsU45hxadk6ntHq8Hxlf1hpOHsXjYXFM48TbhOOenw7n5LWvmpil+th1Pk2AovRHlp5EcT7nmctLa9Fwj4xrZDM9Dcbpc1FKJx8MLgXjdct6gPcUwHmqZpLXMd9hhh7H9HWmAnSKkYJtX+cUOATnnnVxIwHhyQXHd9UHtmHjdTloOHsBZ/qJfvBD8hPHx02XOy+zv6XQJzOPrJdslno9cDXb2W37my8vLsN/mjgtqnsXrKG2Sg30tbtsy7Gs82LGv5dZvFW0E8dQ+59hgnaTbn20aAlT2j9CMDvtous24Z+DlRmjfmnZAeeGUrlP2tTS8qRqy8AuNeNiy4QhAuU5UeYiP97Fc2VytePYnyrLcBBhxG88EWzS/kYZbrM9wTQK1rMO6T6fLg2lY92A/jJc9V+u86jbg5UIu5GsDx0L6Yi19+cK/WWeca+P1Ae5d6qzXXHCSngfqBvG5GuxMk/XIS1uO43QdB7nxsdxtLWMb2gziCVfSdcG+zHJy75/bH4Nc6J2ue9YZ98PxsZDbPtxjpueZKiF7lTJpGB7jXMKyli1nQMDJ+ZAXDbl1lmsPuSyI516Maw/7V3qdYr7i8wnn8LB+CGTDeJluaE+ekIx9kvM+98rp+SauVR/j7+n0GS/zynjKmtHimSndz3PNnDK/e+yxx3A++WUyxyHHSFwGXLPT8VV9qcb42zzm2gjiObdzHWQbpvs865h1Tz/2K36BGM67nFfjbZIG8TT1l64/XryHfZ8XYumLL857PL+xDdJjrS2MP70vYdtzzHMNZB65dwv7Zhowh2s6w5A58YsUwmPWC82r8MybvjTixUKuhn9ZEM/zJfMaz0uM63yaVVF7Pz3fcJ2P97kqZcDLg0nriXuccByl66loOnEZXuxMKoOqv15gfsI6CeeEdDtxb8x24sVkOm22U+5F27x1GsQHPDgxylguqIrRn2AoF5oGuRAvVy4XJnACSYM8Apy0HPjZfFwuHR8nsbg/QXR6ESiqiZ0uAw/ZuXJtKQpW+NlJXC4XfrKzx2XQ9XZiPcbbiZN87sUO2KYEaKEs+10uLI3LoC/bq40gPuDGM55P8KCVKwv6peXTYzRXBjyYsK7jsgTVaTnWVbjIg+2aluHin9uX2D9zZePxtYl9Oje99C3+rrvuuqQc0nXHsqY3krl2x9m/0yCM4y5ezvTimTbbUob9Ip0Pzl+52gmsc461uB/zRxuT6YvTWG4ZCGXSbcX+lLu55liMl4kXRuHmDmm78Ln249PtQsAYTz9ejqJ9qOpyzFLXQTzn0PTlUK4ZJH5GHK8Hxld0IxWH1Om2zNUa53ySu6mlaZR0njmn5B7s2pDebKfLXIaH1nS5cjXFWRe5ED0OWnkYjZc7F/rT3nBcJh0H2EbpgxjY5nHITLmi5mMIE+MaLdz8psvJ8Zs+ZE2zPrhZjsuly1K2HPELCvbd9GUKaAYhXTe5Znd4WEznL8jV7ie4yP30NTdu9ts4NOFhIu6fm8c2tPWx1iANtglu0m3PNiVcjJePfSR+IRIQKqZlkQaz6XQDHmrDNuC+jn2lynBxzX3mt6gJGOY7bTM+BOxxubhMwEMpQXeuRljAw266r6TLEKT3rIR5ReEGy8T9dTyfDM9xmc5n2AbpMnHfXHQ8NJH+woJ9aJrQP16vRfPHek2P1xBkx+XaCOJzteFz65qXKulxj3R8oC1jlrGsnd1cuJxbxja0FcTzkjX3Mo+KFfF8c83LhVVp6M15OR1faF8+lAnSpmEIg9L1ngY5uZC9SpncduZvvLAN+wQhZ1HzauwTcZvxhKC5Wv+574ek02b+0uXkQ6Tp/Q6VHMqOQ0JnXqKltaRjacDOcqTl2QfSdcg8p990IQBNz3nYMQniOf7SJqGYbu4bMVzj0/XINNJvfRQF8Tznhucj1j3/n06jiTaC+Fi6rKy7ovvnSUE8z07xPsMLnXTbkqnF25bgP/es2Ra2QZr5sC/xrJle57jn5f6QFxXx+YHzBff67EdF25IX9un5KBfw5oJ45od7wvjYIh9Ij1NwPxvmm/lJn0f5hXfu5RuZQTx/rPf43pT1lI6L6XM+Ss+VrCe2LS9/wzwzL+kzQtm8xMct85Kuq6IgnrwtXPP4L/d0YZs885nPHG6n+G8pcoD0nEH5XNl56m0QXwUn5nS8TCstlwt4i9qsJmhJy6Yh9aQgPheC5uYLzEdatssdJbcucqEa85DuwOlyVlV3OzH93HbKvTDh5i2u4R3kpp2+gOnL9lqOQTwXvdy64kaUbZKWj19q5V7QFB2XyLVfHbdf3qZc+JhrGxu5MD5dd9zwxP3Z14suHmmTOOkLh/SmsChIz0nnA2mN+zak64+H13R5i4L4XLAeS2u65uY/ffHBOipa32WqLMcsdRnEc7zm1iUBQlqWh7B4PTC+3I3UpPCaYycdNy+oiobhYSAuC9pRzZVtKn1oISDKvSDI4SNw8XJxnkwfBILcLzzisjych35I2zlHGoin4wDbKA1q2OZpTW9Qwy3dLgSOueXPfXwyDaRz66MoNKSmTrwshKdx2aLlSGvOI/cCgMAqXTfTBvHp8iD3YdKAQCItHwcDaXDAvtZFe5bzCOLZBun2IjAv2v48CKfbglpU8TbLBepp7fec3HAEuen+QPCfPmhzP5p7eUCIny5fHOxPg/bY03HxC4TcfpXen5cF8bna8GyDoqCNh9x0Pvj1yKT1W0cakrNcRctcF+s1XX7uP9Jp5EL2aYP43LTYNrl1nQvj0/FV9ZKXvKTSMrahrSA+9/KAX4Dl9rNcGJ+G3mkZ9qWiazYvN+JjiP9Pg6Sugnj+TYWH9BzBC9j0uGZ/yH1XhMpi6fqIg7sgnXZbQXwV1C5P5zGtaMXzTlqG+8bctHNh/I5JEJ8rUzQ+cC1Pp8+1PN4Hc0E8IXyd43QafQ7iuUeM1zPHcro+KJ9OM33J1iZyj/R45Dhpu7IOFfXS44X76PTYywXx5Fe5fZHKYul+yHU4rFOGS4/l3DTBM0Kav8T3m9zvpuPilye5ID2HX2emw3P/XTQv6fGT/mIwF8STxeYqZU4j9xFZ7u1y8zlPyzqIrxqgTgrOY7lxxm1pY9L40iCNAyLuHyM8jssirbHdpmnWRVqWG9BcuUna3k6EuXE5FO1PuVrXzE9cpi/bazkG8WXH8aSgnQt93I9wpuwCnXupUrZMTaShf9m8sS+nD/fpekmbg0lraMcYNi7LzU5cNh0XOHZ4YTjpwpUOyzFdts7rSgNs5i+dDtsuXW/sM5PmJ12GXNjLz+bicZet7zJVlmOWugziiz44Stn0JokaIXHZXJkqLz/SYJ1zb9lNMz83TOebmhpdbJNcbWq2Pw+ok158sVzxsGUfMU3boud4jx8C06A7t53SILlK2+pF40IumCa4yJXNhfbUuInLpEH0pPURTztdH7nlKGo3PVc2bjc/mDaIT5eH/bbsISYXLsehbto0DQhgqHHYZg2yeQTxuaA6F2gHVGxIH0jTkDmdLvsINbnj8eSkw7GOcw/FXEfjkAFFQXcutOflWq7sJLkgnrA2t66qzh9y2yBXGz6gxltu/E2DuZy0aRowbT4qm6vFWkcuHOflZbr8bQTxuZcYPIcUrWvOhfG5IR1fVbkgPreMbWgriOe+LD0vxs1jpCaF3tS+jNc9L4+L1iX3DWnt+XTaXQXxuTLgmpPOE/cbueOav6fHKLV70+09zyA+F4qnzyjMT3q8pDXSY2nAuGMSxOeCdc5n8ThiVPxIlz0N7tMgkbaxZ9HERZ+DeMLoeF9N+4P7wHh7sS9WrcxSBy/s0+Mn98KrqbSmP6oE8ayjomf0XNBOOB62D8sW76eULaqswYu7dFuTvYTzCC8s030+9xKvSDo881J0POTmJf0VQhrEU2u+7DpQFS8M0vOFQXykLMBLsYMSlvJgH6TjC5hWOnzVgBe5oDVtkmXS+Li5iPtPKw2K2zTNukjXM8PmygWz2k7T7E+58Dhdv33ZXosWxKeBMuJ1lV4wi7Z3kFum9NcqbcnNW9FFgf0xfjBDul6KftpYVVzznwtqOr2Am17OV2lzWkE6H1WC7yIEJqx/aoaE452H1Hj8Acd2Op1cEF8UDMa4eYyH4YYxXj/MV/qzO24cisbbdDlmaR5BPNKH5SpBfJVtmf68kW1ZdpPEjVU63zwwdrFNcs2uBBxnNJlS9GuSoqZdquImNIwrDbrZB+P+7L/px1xz655tlD7wthHEU1M2LZsG8WlzM9OKx5dbjrIPmKYP5W0E8enyEPiUBa/st+k8x+3Es6+l/YOwr+V+uTCteQTxuY+7lgUtSMMb2pqNg5GqgXpqmuHSeSgKunkBMG0Qz4sImhrhRW+45qTntaCNID63DbhHKNsG6T1Qug3aQiCZhtvpdAnSy64LQVivoR19pMsddBXEE56kx3JZLdBpg/imy9iGtoL4tH14ApiyF/GTQm+Op6J1UQX31vH6mnUQXxSI545rXrykx+g8gniWg3nhPiXskzRpWbQd0iCSl9pxWfaBNNCNTQrieamdHk9l4yOATLdh2k58+tzENNuuZZ3T5yCefS1db5ybwr7KfsE1Kb425sL6NvHyNr0WN/llIS9Qubdknwrn2qL7tKZBPIF1up+RTYX1RdMv6TV/GlRwCeec3LjKXlaleFZuOi/x8ZUG8VwXpqmAwnbiWSbeTul+EBjER8oCvIBQNz3pTsK00vFUDXiRm9e0/KTxpTV9p8VOFY+vTdOsC/rFZRk2V27W22ma/alKEN+X7bVoQTzhZlF5wqP0wYuLTjqO2LTTr4sLZTpvhNtFD1Lsj2n5eL5yyzoNLnjpRYmaJpPGyXEZz3NuPsqWqwjrhxu4eDyTcGyn02F7pvNTJbzlZWn6AAJu/jlnpOci1l/4mGusreWYpUUK4ln/6TAEeWU3STRZMO10msjVwE8RvMQ3lbnlmlZca4jALH1IBuEv+zu/1on/zv6ea66HbZQ+RBStuzaDeNZH0cNLVfHDVG45ZhnE55YnF0DH2G8nzXOu1nyKQLVJADCPIJ4PVKbH0KSH8UmB+XIN4qmZzku6dH2UaSOI5xcy6b7FfpwrG1QJpdvCT9UZf9l6IZAveoHDSy1ejk2zXrsK4nlplq7ruH+qahDf1jK2oa0gPq0wkWunPTYp9E7HN620VqhBfPE5lfmn2Y90/JOk5510n2YfKPt12aQgPj2PTBof5+90GRhnfJ01iF8aorP9cy9c2J7cB9CEaNqP619uv28L59L4PouXOnVq4FP7nGGnOdc2DeJpAz3dPpQPz/68ZGxyH00mFNY9zb6k62maFxa8cGtrXlA3iKeCHc8/02wng/jIpACNgCgdpgqmlY5rmvA5N6/T1ohvEuxyYuvyRDXNuqBfXJZh0zLz2E7T7E+58LbNIL7N7bVoQXzug6dh3ee2IbWz03HEeOGRDsM0cmWb4EKZnth5SZB7AATLkpaP10uu/zTSQD2g9k6umZpYPB8Eeul8TBvEs24mTTOHYzudTt0gHukHW8vkaky3uRyzZBC/NIif1A59U9y4cRNcdgxTwyTMQ265pkGwny5Prk3yIgQ2ufXBNkpvnpdDEM/6iPeJ3HIsxyA+90FW9rVck0gxan2VHSNl5hHE55rdmfSz/rTNfF46Lfcgnof7OsdBG0F87uOzk2rA8XAel2cbdPlswvywb5edO9l+HH/xcHXX6yyDeCpBxOOIVQni21zGNnQVxJc1JYMug3iagEunbRCfPzcy79ttt12tfTI9ftMgnmZf2gziN9poo9IXvzR/la6jtP13g/h8bfZcEy1FeGar2gZ5XekvYtiu0wbxVHZIr61VdBHExzXimwTxzEd8DUqDdNbTNE0tNQni03lBnSCel4C5CnmTGMRHygK8XE1aTgoc9HF73LmwkWnF48I04TPjj8sinddJ40ubOuHCEfefp2nWxaQgfl7baZr9qUoQ35fttWhBPAFyWj6eh/TBsGxfRC7Yj9ucb1N6gmfecg/DYH9MlyVdL+n4yoL9aXGsEajnbh7425lnnjkqm1vn08wHN27x8GBZ2A5xczjcNMRlOLbT6bAvpPNTJYjnhUw6XA7TpP3H3DiKloMHmWmXY5YWKYhHeuNJyFF2k0Rgms532cdd28QN3CMf+cjCm7+4FnraNE2uzfaqci8fctg3+dBx0bpgG6U3z7MI4sHDdty/yfrILcesm6a54x3vOFaWgLAoBEVu/GUfd520r9VtO3seQXwuXC1rmoYH1XSbpR93XW5BPIFoWoZ54ZjiI/BhXXTVRnxuG5Q1TcM2SMdf9nHXNhHI8+sQmttKz/WIPxrLusmtVz7Ay3oNx/ks24jPNU3Dr/iK1vWkIJ5lTLdFbhmXYxvxVIaI1yUvf8oCzkmhdxrETQr2JzGIzx/vNI2U7pM0MUMTbDTXF+ahShvxaQjHPlAWnE8K4tOmblj+ovATuaZpJrURzzRXehDPeTo9F+aw/rnPLNsGbeHeLj0H8vxbdO5NkZuk+8Jd73rXwQEHHDDcT8JxmHsB0TSIZ/h0P+ND5mH7pM3JsF7rNruTywu4Z6+6ntKmaZiXJt9MmDaI5346Pa+xnbifireTbcRHeHBilDHeZuTKIg1G+elBbuetG/BygknLBARocVmkwW06vjRAzAWQszgJVTFp3mP0i8sybNy/6+1UNG+5/alJEN+X7dV1EF8WWtcN4suOY46ztHy83dPtzYm97KY53d+Qa3KkDfysLp5O2bzlAuV03aUff2XdVL3oVcVb5jQ4RhxGp8vFMTvNg0pa46ioRn2XQXx8s8JFln2AlzSsc3Dzz7hzwwbpcqTBcmAQ/7/imyS0FcRzoxoPw3FWVoOFtjvT+eYGNle2KxxnuVrLPBiH5eWGO+7P8V735i9u/531Q+DPx4jj/Z1AZtJxzDaaVxDPw3G8PghIikLDSXLL0UUQf/DBBxfuvzw4xMvDdil7KKL93HT8r33tayceH+xruRrlBIuThs2ZRxCf2z8IEYu2F+Fhun133333sfLTBOqxaYZjm4ZyaBLEc5zF64DrVq5GepMgviwoz9WoLtsGuYCbUKDuMVtX7sOnNHUUlpP1GvcvW69VQuo2gvjcuuZ8nVvXjJtrQ9n4csuY1ijEcgziaSIhPTcQ5Ob2d57J0rA4DbS5H03XVZPAdCUH8TTLV3Q+4f4n3m7UYs9d/6oE8fwSIXdtzO23BMFs07jsjkkQz/Klx19Z+EaFwnQ98pI8XucG8UuD+LTmOOdYAmqu9+HelDbj2S/q3KvUwXU33ZaEsVXuDZCG3bwU4n4znf+6QTxhcVHAzMvn9BiM23XnupL2r/tBU+6X0/XEMlVdT7mPvU4T5KemDeLTFwFsp9y6MIiPcNPAKGMc5Lmy4EYnLlvUZEXdgBdcsNNyXCDS9lYR1+7GpMA4V1O8iyY06pg077FJQXzX22lWQXxftlebQTwn1XSZuCnKlUVuPaXrNFcG6fpE7pclnDjjE2W6fyE3LnAOSS8cHKt1T/yTPOhBDxqbFngrnpZjX8z9HDZdd7mmVIo+9NgE6z1+qEM837mgnhv9eBwB50P2mfDQx3/TcVNzJB0OXQXx1CyLh+EcNCmATBUtR266BvH/K31QaiuI57hI54P9MTccN6TpzR/nlDptQDbFfpgub/xBYB4G0+Wq88IgXa9NggXGlT6gFm2jtoP43PqoEkTn5JajaRDPDXu6DDxoFo2T0DNdnvjjqzH22zQMYb+tWoOI9rPT5eWhrM7DxDyC+Fy4XNaUT27d8kAf7yvLLYjnFyDxdNOmdoJpgvj0AZNly4V7KNoGRcuea17lsMMOq7XPNZUG1fF8p23fFzWfM8sgnhAvnRYvInPzxbkoXc/p+HiuqrKMyzGIz/164FGPetSS/ZJ7UcKZeL0jDbS5707XAc9CddfBSgniuRan0yUgL7rXSJsO49dbueWpEsRTuSLdZowvnUdC4LS2O3ZMgngq1qXTTD++GuN4ivcrhuWcHp9zDeKXBvH8miXuz7mm6Jo+K7zwTPdjzp/xfMc4N8Q1qDnHxMtEDpAbtm4QDyoUpuPk34T06fmNypNh3rgnT6fJfWDRfl2G9ZSOi/WUHpsB98fxesrVSGde6h4T0wbx6XmAF7q58gbxifTEyL9DDV1O4HFzAJwA0rLpSZ4H4VxozkNaXA5pwBuw44XpMhwbMy2Te2EwKTAm6EmXl3lNA/0YwxD+lpVpQ9WwG5OC+K6306yC+L5srzaDeOYrXh6wvcJ6Z/4RyjcJ4kHZMD6O6/Tkh7T2fK7Nd4Zjn4nLMd50X0OXL0tyLzKYN2qehjKsj6I2KdN1xz6XXmT5vsDZZ589Vi7GuYnxxBdHji9unph2XDZg3afTiQN/1lnan32fJi3i8bBtQi3+sMzMRzos58w0JMhNg2M7LccypOUmhbfs1+kwrEfWEzf9jDOI9+9Y1eWgNkKV5ZilRQviuXlP54P9kQfKeFi2JTdncTlUmUZdPLCy7+fGz3yny3vEEUeMyhJapf352GDuI6oBxzs/+Y7PCbn1ynhYbvZ55i/s7+HcXoT+aehRtP7aDuLL1kfR9qP5knR9ILccTYP4XNhNsBnmj/0vPp+w/dPy7LdpYMwwPDSk+3g6v4S8r3zlK7PrIjetdDpVzSOI55pFuBjPP3LbjL+l+0kutF5uQXwu2E6PV/bBdP5QFMSnARJ48AzrlPGF4dgGXLvS8ul8gnNCur8Vhb9toNY79wy5h3immQbfBLVhnovWa7y+itYrx1W6/7URxFM+98zDLwpCG8nU2s/NO9LxEdyk5dLmFljGdL6QW8Y2tBXEM99pmAzuvcI2pgz3/+myIQ20c+Nj2/NMUXS+5PhlH8w197VSgnj2x3Q5qGXKNYnxERTG4XTarjv7bNr+N027cRyk2y0N+1jv6bQRNw9DmVyoiR2TIL5ofLwoj8/1LBPrIj3Xpe3DwyB+chDPPsEv/7gv5deE4d40bqqoa+zHuXMvNd3j5aQ9drY91+24HxWv4mXiHuCss84aDQfuCXPn2qpBPAj4Q3nmhcoH6T1EWnueZUvzBo5RzvG580MYhoqmnFfiMvw9bT4TrIv4OGbeuO9hPcT9csPXnRdMG8SnbdQzf5yf4jJsJzKMdP2v6CCeHZfRpvg7K5H/hrKcCNNyhLKEWQREBHrpTXKQexhNA95U7sANCOQmjS8XGBMKxWUCwn9OVAFvbwmSQn+WPR1Xm6rMezApiO96OxXNG8PG5cC6zJXlQpCWzdW67sP2ajOIJwCIlyMW5j8OxnPrKV2nuTKpsmMpFzrH6zLGTQC/Wkn3wYDzRXqz1CZukotCdgL5suVEbn/MBYmMi+WM9zH+HZ8v4/CffT/cAFCG/ZFjjW3DPpy+AOH4S9dT0UdKKZtb3/H00yZ2wDHAPHBccbyk/cGxnT7kMM/pzUyVYLVouxRhntJfH+SWgxuNOssxS4sWxCNXKx6cA9i32Cdz/TkGu3oYipeH42yPPfYY3guwz3IzmdsH05r5fMwsnW+OMdZdfLyzjPH+yAN2vN64IY/HMQm1RHM/72eZ0ofOWQXxmHZ9hLLp+sgtR9MgnnAgHWcQAs/0I6m5mtuhPOcSHupy/dlv44cdHiDCtAmN2Nd4Mcq+Rs2l3ANT3fY45xHEg2ZQcuuXdcH+yvm26LyeC6LT6ZYF6rFphkvvXZsE8fzsPF1+XkQRDhGeUWMzDUmCoiA+rQ0esIwER9wLxGFf0TbgATreBrl9tmge2hA+JMv8so4JHrnn4KVC7iVW3MxLrumaeL0SDBWt166CeNCUUm5dI90HU+n4qixj+s2KoO9BPNLwK+D4m7SucoE2zzXp+mJcnK+53oXrDOXioIyXvum5YKUE8UhruQc0O8M6oom0cL+V+1ArNehD8yS8LEvPiUEaxINxl+0DuX7BjkkQj1wte/DhVs4xBKG5sJ5zYe77JQbxS4N4zjvpNbIM+xH3NVWu003kmqcJON65n4rPKbzoDPdjvCxNl4nl5p6fJl7pnz5jB9ME8QH7W9H5jetceo7gBWV6fgD7M8sdzm3kAtyLhWOUe95424F75mnWEy+O43EwL7ljiEpt087LtEE819d03hmGcyXbif7pMRus6CCeGg+Mtkgc8lLrcZoDPMZDWjxdpAFvruZ7Diei3MWySmDMcJPCupw2g92cKvMepKFcvI3Q9XYqmjeGjcuBAz5XNhce54L4PmyvNoN4FIWJQdw8U249pes0V6aqovVETZVp9yEuhMxLbnxtKno5k2J+0mMltz+yrGUPFUWKgvgqck3H5GrNl4mnn6vtXgXHdnpzyzZMx1UlvKXmcNrWfRU8pIRx5Gq7V5FbjllaxCCe46IoLCnCOaPsw6RN8bBYdgOdipulCVgnuZvmSdLAm/HE7cRXlbZxznjSh+dZBvFMP3fjPklufaTL0TSIR+5FQSwdjtqXRQFYEfbb9MUC+1pRaJFTt1kazCuIB/2mPefSPFBufOl0+x7EU6Yo6JqkKATnVxGT9pv0+aXNbdCWEMTnpp0igI4f4lmvhBm5spN0GcQT5lWdL9q8j8+f6fjaXsY2tBnEEz4XhVsxjkf2lXhd5QJtal5Oez+BlR7E8wK47HzCS7EQ2vLrvzr3NsgF8Sx3lW3GPkBoH1//d8wE8ewDaa39SRg39xq564FB/NIgnv2Xl1vpvdgkZAFdrju2Pc9pVbc9L+TC/BCm1z3XVgniqcld5V6PyjfxLzAD1nmuCZtJcuE364nn6KrjohmxuAIJ88LLlTbmZdognnU9bYW8YEUH8Ww0bmAYdQ794vK5drtjnDQpkwZgPKTF40Ea8DIvhJDx31KEmLkLRm58RYExw3PSictOkguJ21R13pGuW4ZNy3S5nYrmjWHjcmgaxGPe26vtIJ6Aq+wGl6A5lK0bxHMRS7dtqmjbBASrRTXjU7xEy12gusL2zc1HwHmLj4WyjPHfi5aZZU3bHS/D8cPPkMPwnLuqhtC8ic49wIOXaFUuZJwH05tcbt5yZQNeaL3mNa8Zu0BzbKfzUjeI50VC0Zv8MhwL8cW9reWYpUUM4sExTa2OKjd1nCu6+khzjJvo3PRT1H4uWk7WCzXFqiwXON65yYzHQZhS56GX/T3+WS3zMs8gHnXWR9qWfG452gjiJwXraY14sN9WXZ6ypnh4EKkyjtw8TGOeQTzXrlzTMzmce8ua31luQTxYnkkvohhu1113HVtHZbXRy0JslpV1Hpfn3xzzVcITAgnmucn+VkXV+eGXJqzrdF0wj2nYmMqt1y6DeDCvadkY+xcVAvjIXHw/kxvfNMsYr8vlEMSDfbwsAKMf94tcl+LjsijQJmTKNelThvvKdF2tpCCedUaN8aL9Na4RD15cpOfIGNOlskR6DBTlKjRlU/SLHLAP0FQOte7j5d4xE8SD5aFflXMLgWIuSA0M4pcG8TRbwjl5mmMs4NdOVa7XdbHtc829pNinjj322LHtzjN/2XWafZ5fKT3gAQ8Y27eqBPHcj6cfuU3xHMS6Lbrmsw2omT/NMzDXmaLzJDXdq6wnzr/peajuvKTH67RBPLgWlF0TWcf8EpHtFC/fig7iwY6QNu0BDng2clqeIJGLabzTUpawlECLMtTQJAhEUXgewkIwvvB3LrzpvBC0xAFlTjw+EDTnygWEXqGZjTQYZdn4O+slLFOXppn3EKAHReFiF9sJZfPG9OKybMtcOR6UmV4oR5A7aT3Pa3u1HcSD5WddpS85WCcEGqEc2yNeT2A9xOPKBfFhn2BbccMV9+PYoqmPeBxlGEfYrvF4wHbLNRM1CywD+3JYPvYJ5ofzRNiPOQbidVe0PwYsS1jf6bISQjB+1kfupQPTDMdmOizrnHmNt20RxsMyMJ741yAsH9uhbNvRL21qh/GwP4R1wkMhfwPHdnpjQTmaJQllQPAdl0mxD6YX/fQjuqwz1m+u+Rl+thaXLVuOcCMwaTlmqa0gnnXPTXhYLpStez6eFZdlPcbrYdrxFeEGPazv9IGMkI+H0lmtf+5X+HlorokRrm9cI+KXZGVoIz3s6+m4wvHOr1fS5rs4r6QP5vvuu+/YOmB/Z73l9ve4VjzbiIfweBvxAabc+gyBeSjH/BEip+XAjS01fUJZzh2THlInrQ9unnPrA9MsB/iZPNswlE1/KRBjXTLuuGkc0HRHUYiOKvtt2c1/2b7Gwy4vDwjsiqZfVdtBPD9Pj9dt0QdrY+wvYbj0ZTDhMTUzJ32AmQeseLqEuVUerqYZjgfmuCz7Ta4s+yMP/aEcCNRy24pwlkA/DnZYZrZv2If52Gc4njjueKlVtt0JBSgf7zeMk8CqaNnSbZAOy0+73/a2t2WH7QJBLMddOi8EAJwLitZ9ENZrHDRNWq+5JijCugzbkRdHafhQpUzAfPGikvIhaOCFHLUL43MW8xn2NfrlQqqyZQz7G8tIYMp4ipaxDW0H8eBFKKEOgV9YV9TCZv2GYIp1wLk4rHuaWypa92C/Yp2xbtPrKPe5jJ9fGBUdY1zj43MA5/l0elXKcG2YVAYEW1w/47I8h+X2fbZt/MzGeuG6nS5H1WmD6XOPmwaIrKfcfLDfEeTFgSShGufOMC8E9uF4oWwuNA9o351zT7wP8P+8ZGLbh30gfm7gulkW6hLwMz/MQ7oPEMBzTYgD5pyHPexhY+uQ54uy/a4tbQfxnPPjcxfLUbTuWOdx2TjM5b9pUM82ia8ZlGHds4+mQS/PqLN4kcHzHfsctcjjeWW5WB6C6Nxxz37IcRMHvYyD/SC0ec9+x4tw1g3HHiF7Oi7OXeF8HDftwgsl5iE+bvgFB/cjVdcLwT/PZYyHCiTxdZOciuOG8ynPEGXXTrCeOO/k1hPZXdF6CqrOS9H3AljusJ7ANMvOEwH35GyTOKcL2ym8GOEawT1E2E7hPJIb37zMNIiXVKyLIL5NZUG8NAvcDMf7Hzd5RRdVbjLjGwIQ7vXtIjyNtoJ4LQ9pcyncSBbdVOc+iMoN7nLe39WutoN4SStPF0G8pHFtB/FtoSJY/FKDF6a5SmMgxI0reoFgdtLLD2mlMIiXesIgXiqX/kSU2mPTBPFxe/fLkUH8ypL+lJj9vSiIpxmCNIgvq/2tlccgXlJTBvFS9/oaxPMrk7iWO78s4JdhubLUjE/vY2dVI15aDgzipZ4wiJfKpe3j85O0XLjOvpo2e8BP5Kr83K3PDOJXlvQjrezvuWZYaOcy90HXWTYvof4ziJfUlEG81L2+BvG5ds5pMjE0XRPQpBRNHKbt9NO+d5dtxEvLiUF8T9H+eNzuUROGpcuDQXw9kz6oWhU3Fsu9xvSio92+3LYD7ePTDlz6M8hglu2Ld8UgPo92T9NfP9RF+4192U9o6zC3XHyvIrSnWLS/77PPPtaG1xiDeDVBrUe+N9TGuZYPD8+inWW1zyBe6l5fg3h+bZz7oClN1PA9Ae5L+c5O+gtN0I44zdLwXQY+TN3GtYTvCiz3SlZauQzie4oTHZuhDZwUc9NQvxjE18PHktL5qmvSh5o1XwQBG2+8cXbbleEDgIsQShrE5/GhoLaC+D61q87+zofTpl22siZstHIZxKsJfnmTfnivLj40mtag1PJgEC91r69BPHK14ifhXvatb33rcPhDDjkkG+bXQZvzRU3jSH1nEN9TRx55ZPaEUwcfNMxNQ/3S9yCer+an+1Yfgmvam0vnqy4+QpObhvqDG6699957WDMvtw0DbhJ5SXPmmWdmx7McGcTnPelJT2otiO/bB33Z35/+9KcPaxjl5je28847D17/+tdnxyMZxKuJU045Zerwpcimm25qEL9MGcRL3etzEA9+jb7lllsuaXomRVBO8B43R8MvT9dYY41s+Wk96EEP8uOvWrYM4nuKG9RnP/vZwxrHTZ188snZaahf+h7EgzA+7FeHHnpoLx6k+Fp7vL/XxUsF36ovL5zb+KUGvyBiG3LO5N807ZUrv9wZxOdxDuDlTHpM13Huuedmp9EHBGHx/s45i+a0OA5shkaTGMSrqRe+8IWtnGtz37rQ8mAQL3Wv70F8QFvw/FqKCqRPfepTh+f3ww8/fHivWtT8GNkBFd/auJaceOKJ/gJUy5ZBvNQTyyGIlzQ/BvGS6jKIl9SUQbzUveUSxEuqzyBe6gmDeEllDOIl1WUQL6kpg3ipewbx0uIziJd6wiBeUhmDeEl1GcRLasogXuqeQby0+AzipZ4wiJdUxiBeUl0G8ZKaMoiXumcQLy0+g3ipJwziJZUxiJdUl0G8pKYM4qXuGcRLi88gXuoJg3hJZQziJdVlEC+pKYN4qXsG8dLiM4iXesIgXlIZg3hJdRnES2rKIF7qnkG8tPgKg/hV/zhv+MRvZ2dnZ2dnZ2dnZ2dnZ2dnZ2dnZ2dnZ9e4u+mmm/6y6j8b3RzDG8Tb2dnZ2dnZ2dnZ2dnZ2dnZ2dnZ2dnZtdkZxNvZ2dnZ2dnZ2dnZ2dnZ2dnZ2dnZ2dl12BnE29nZ2dnZ2dnZ2dnZ2dnZ2dnZ2dnZ2XXYGcTb2dnZ2dnZ2dnZ2dnZ2dnZ2dnZ2dnZddgZxNvZ2dnZ2dnZ2dnZ2dnZ2dnZ2dnZ2dl12OWC+IPp8de//nVw4403SurYf/7nf3LIDf7t3/4t21/Sysa5wXOEpDr+/Oc/D88ff/vb37L9JWmScB/CM8vvfve7bBlJzfy///f/COeGOZzHmbSYwnG+yjWrLqvr3RzD/8M/rPrHfuFC+4tf/EJSx8LNLQdlrr+klY1zg+cISXVw088N/3//938PfvnLX2bLSFIZXuhxHuGZxfOI1I3f//73w+Ps//v//r/Br371q2wZScsbx/n//M//cKx/bZV1b47hDeKlWTOIl1TGIF5SXQbxkpoyiJe6ZxAvLT6DeKknDOIllTGIl1SXQbykpgzipe4ZxEuLzyBe6gmDeEllDOIl1WUQL6kpg3ipewbx0uIziJd6wiBeUhmDeEl1GcRLasogXuqeQby0+AzipZ4wiJdUxiBeUl0G8ZKaMoiXumcQLy0+g3ipJwziJZUxiJdUl0G8pKYM4qXuGcRLi88gXuoJg3hJZQziJdVlEC+pKYN4qXsG8dLiM4iXesIgXlIZg3hJdRnES2rKIF7qnkG8tPgM4qWeMIiXVMYgXlJdBvGSmjKIl7pnEC8tPoN4qScM4iWVMYiXVJdBvKSmDOKl7hnES4vPIF7qCYN4SWUM4iXVZRAvqSmDeKl7BvHS4jOIl3rCIF5SGYN4SXUZxEtqqssg/sc//vFg6623Htzylrcc7L///oOf/vSn2XLSojOIlxZf74L4L37xi4Pb3OY2A2Zhq622ypaRFtG8gvjTTjtteLzhJS95SbaMpPkziJdUl0G8pKa6DOK//vWvD9ZYY43h88i22247+NGPfpQtJy06g3hp8fUuiP/ABz4wCgXvete7ZstIs0Ytjde97nWDQw45ZHDuuedmyzQ1ryCeZQrH3FOf+tRsGZZ90003Hb4c4xjNlZmnvs+f1IZZBPFXXXXV4Oijjx6eFy655JJsGUnLj0G8pKYM4qXuGcRLi88gXpqAfZKQt+v9ss9B/FprrTWxzDyl8/fzn/88W05azroO4k8//fSxY+kpT3nK4Gc/+1m2rKTlxSBeUlMG8VL3DOKlxWcQvwJ9+tOfHoavRx111ODaa6/NlunSLKffZFqUJ9QN+2PX++VyCeJf8IIXZMvMU9/nT2pDV0E8TcI95CEPGdziFrcYHUcwiJcWR9tB/GWXXTY47LDDhvdXV1xxxUxegM9jmpL+ziBe6l7bQfxnP/vZwSte8YrBkUceOfzlq9dOaf4M4legHXbYYbSOaR88V6ZLs5x+3WnR/Mz6668/Gja2EoN41t1jHvOYYchNaJcrM099nz+pDV0E8TRDc9vb3nbsHBcYxEuLo+0g/hnPeMbwo4qcK172spcNbrjhhmy5Ns1jmpL+ziBe6l7bQfwjH/nIwa1vfevhsXXiiScOfvKTn2TLSZodg/gVyCC+XFoLnn+fddZZo3+vxCBe0vy1GcTz3YsHP/jBo1rwfCSdmjJ8sDn8zSBeWhwG8ZKaMoiXumcQLy0+g/gVyCC+XCjPhz8/9rGPDf82i/3SIF5SmTaD+A9+8IOjQGuPPfYYXHnllcO/H3rooQbx0gIyiJfUlEG81D2DeGnxzS2IpzYe4ebXvva1sb/XCTxp64rhMI82z4sQ4jJPLGuuf0A75rl1UdW0y7/cg/hplrfOtB72sIcNXve61439jWmF8SzXID6st3R/7CqIp4mYsJ3aaC6G4yOML9d/Wm3Pn9S1NoN49vmHP/zhg/e///1jbUUaxEuLySBeUlMG8VL3+hrEM9xHPvKR4bPzNddcM5e25r/1rW8NPvzhDw++8pWv+IyiZW3mQTyh3+abbz48EQQEm7TtTKjKgR3/PTcOUJZh4vEEjJ+mRHLDtYl2xMM03/Wudw3/RrjxxCc+cbDmmmuOzRN/y710oNZ1XI7hWK5J4f20y8+HrXJlUzRP0EUo2XT60yxvF8tadb9soosgnvVG2+nMc7zs7HfhZUOVIJ6/hzJhX8/hpRJli9rXj39lUORJT3rSsCzHAhd4joV027M88cV/n332GfW74IILxsYXqzJ/H/3oR7PDSvPWZhBfxCBeWkxtBPGnnHLK6GF+ko9//OOj6/R66603+vupp55aeF7hnmWTTTYZnYP4OGvdaUpqn0G81L02gvjjjz++8BtQsdVXX31w8cUXj73YPv/88we3v/3th/3f8pa3DH76058O3vzmNw/ufve7j16G47zzzhtcf/31w2HIFcLxy4dhy7KsL3/5y8Nnca71W2655eB73/tetlxA+cc//vGDjTbaaGz6zPs222wzeN/73jeaD2m5mFkQz8FIIMioixCuUWs5/nduXNTsTYPunC4C5Vg8r/w/CHfjeYixPMw7w04Ki6mVXXQCq7P8z3rWs7Jlcgid4+m1ocn0p13eLpZ1OQbxhM7Ma7y8KfYz2oQO/y4K4qv8siAO9Cc57rjjsuPAQx7ykFE5HqiptRsPG/fLDfOGN7xhbHzBNPN37LHHZschzZNBvKS62gjiqYV+q1vdask1M+fMM88cnT/i4bif+8Y3vpENzPfbb79Rud133334YF13mpLaZxAvda+NIH7//fcvzaVi73jHO8aCbEL3293udsN+1KA/5phjRsdmLK5df/TRR4+C/xe/+MWlxy+16u94xzsOy975zncefPe7382Ww8knnzxYe+21R88mOQTyr3rVqyZWZJX6ZGZBfBrCE+wRjFHTddNNNx39PT5hFAWehIehDP9PDV1q0VDTlrdxocb9pJq3TcVBfDxPzDfLhvjvoGZ8HAgyr6FsWju+KKyss/z8f5hOHM6yXcLfgy5OYk2mP+3ydrGsyy2IT19e8P9h+Qnb437xMdckiA8XSMbHeCjHegPbKT3Ov/rVr2bHE4fq8UsChmc+OE4Yftogvq35k+bFIF5SXW0E8dRQP+yww4b3Eve///1H54rttttu8PKXv3zs/uqKK64YXae514pruu+9995Laq9RI2+11VYb9o/D+mmmefnll2cDfkntMIiXutdGEP+JT3xiWDOda+M973nPUU3y3XbbbfiCO752EoTH1844iOeX6gTd/D/hOccmz+PrrLPOWIDfRRB/+OGHj9Xq33fffQfnnHPOsFnNd7/73cPnlDBvOOOMM2z/XsvGTIJ4auYyyiAXMBOuEn7F5XKBJwFs3L8oSCWM7SJQjsVBfEDAl06Xv6XlQMgYl2O4OHQmYI77o43lrxKqdmma6Tdd3raWdbkF8XFTLhxXHINpGS68oUzQJIjfYosthuNkm+X6s30oE8bDLxdy5eJQPWC8ubJBlSC+zvz5QK8+MYiXVNe824i/8MILx5qYueiii0bnF66/D3zgA0fnnhNOOCE7PtuIl+bLIF7qXhtBfGzaNuLjID6gCZhvfvObhc/GbQfxtAW/wQYbDO8LCNvjZnBi5BJhXhnXlVde6fO7loWZBPFxbXhqhOfKIA3jc4FnHIgy3rT/LHHgh3lBUYhJ7eT0JUNRsJi+tCj7mG3d5V9OQXzT5V2JQTwPtHGN97LlTsP4JkF8FQwbxsNLp9yFMg3imadJF9QqQXwVzF8IAormT5oXg3hJdfXhY6177bXXaJj73e9+g+9///vDv7/yla8cNT/zoAc9aNgebTosDOKl+TKIl7rXtyCegJvjs+y5uO0gnmt8GN8RRxxROj5yinAPYRM1Wi46D+I5EBhdQNieKxfEQV0u8KQd8NCfsLGodussxPNKcxllB31c070o7AziJjIIgON+bSz/cgrimy7vSgzi+XBtmFdeAE26kWV/DOW7DuL55UII+fjFx6QgnnVd5Ua8rSC+yvxJ82IQL6muPgTxV1999WDdddcdXa95uKYJmzvc4Q7Df3PPUvbBVYN4ab4M4qXu9S2I5xdtudrosbaDeJq+oT+14eOm7nL4MG04d9B8zQ9+8INsOalPOg/i0yA1VyZWJfDkK8uhDGFZWmt8VuIgflK4Hoedk5rZiENPQtW0f9PlX05BPJos70oM4uMPAVf5FUFcK77rIJ5tF0I+1uOkIJ6229P+OW0F8VXmT5oXg3hJdfUhiMepp546CgQI3rfffvvReF70oheVjscgXpovg3ipe30K4h/72McOrrvuumy5WJtB/Je//OXBWmutNey/2WabTayI+fa3v330Qn+nnXYafO9738uWk/qk8yA+DjAJUXNlYlUCT2rVhzIBTd4wbK58V2YRxOdCz6bLv9yC+CbLuxKD+Lh9eP4/VybWRRDPBZN1RlnGH8TzViWIr7rNpg3im8yfNC8G8ZLq6ksQDz60Gs4zwV3ucpdRUzVFDOKl+TKIl7rXpyCej7VWqWHeZhD/3ve+dxSsU47zAVlEEb7xFpqm2XjjjbM17KW+6TyIJ+hidOBAyZWJVQ08zz333LF2sAOadcnVIu9CvGyzDOLRZPmrjL9LdaZfd3nbWtblFMTH32SYtK+BMqF80yCebxwwjvSbCDnzCOLbmD9pXgziJdXVpyD+4osvHqy22mpj19wzzzxz4vnGIF6aL4N4qXsrPYg/+eSTx5rGmQYflbVGvJaDzoN4mpZgdCDMy5WJTRN4UquVZjgoF4YJZvEhV0LCML1ZB/Gou/xthdN11Z1+neVta1mXUxAff49glkF8+rFlMByoac505lkjnvkLNwhBnfmT5sUgXlJdfQri44+zBrvsssvENmgN4qX5MoiXumcQ//cgnv4HHnjg8Dm9CprF9tlFy0HnQXzcrEiVALNu4EmN6TgsBAdjrmxbCAnDtOYRxMemWf46429TG9OvurxtLetyCuKf9axnjeaVYDlXJsZ6C+XrBvHUNI9DbqZ71VVXLSk3bRvxVbfZpCC+zfmT5sUgXlJdfQniL7vssrGPs/LfYFKteIN4ab4M4qXuLfcgnjyhbJhJQfz5558/uk/Ycssth5Ux4/7SIug8iCcAY3TghvvHP/5xtlzQNPCMA2+aLcmVaQshYZjWvIP4oMrytxVO19Xm9Cct70oM4uNgndrxuTKxNoL4+AOxZdOcVxDP/IXpMn9FAbtBvPrMIF5SXX0J4nfeeefRcNSMf+ELXziqHb/eeusNvvWtb2WHg0G8NF8G8VL3lmMQzzN7GGa33XYr/ebLpCD+s5/97KhJ4lx/aRF0HsTzBovRBdRkzpULXvKSl4zK1gk8qeUaTy9Xpi2ccMJ0+hLEV1n+uA1xmg7KlelSm9OftLxtTWs5BfG0mR/mlZdfZW+ReTEW7291g/iq63leQTxffA/9TzrppCX9A4N49ZlBvKS62g7iDzjggFGA/qIXvahSKH7qqaeOwoD73e9+wwd17lF40A7nHcL2oiZqmM6005TUHoN4qXttB/F77bXX6Lssr3rVqyZWjK0TxKe12MvaaT/88MNHtedzQTvDrr322sP+IIfxeq9F03kQjzik4/9zZRAH26gTeMbB//rrr58t05Y+BvFVln/apkva1ub0Jy1vW9NaTkE8F9f4w7bHHXdcthzi/RJtBPFl04tr388riD/22GOX9A+qzJ80LwbxkupqO4iP23l/1KMeNbF996uvvnqw7rrrjq6xF1100ej8csYZZ4wCenzoQx/KXn+nnaakdhnES91rO4jnxXloCo5s5Ic//GG2XFAniP/kJz85quWOovD8mGOOGR3nKKrxvvfee49eHjz84Q8vrWEvLUczCeKpBc8oA2q9x/0JDuOa8EEu8CQoJPSj5mraD/F4qjTL0cQ8gvg2lj8OGwmvy2pMd2Ga6Tdd3raWdTkF8eClQ5hfLrzMf9yfXxKwvkKZoGg/nhTEx+uZJoLSm2eO8fgYwCyD+Crzt88++4zKwCBefWMQL6mutoP4ODznPuNLX/pS6TWTGnmhWRkesNMQPW6yJtSWj/tj2mlKapdBvNS9toP4uP12XoiTq5RdO+sE8dhqq61GL8upFc81OjxH0BzOYYcdNvbNNhQF8d/4xjcGG2ywweiZ5IlPfOLg8ssvL5zvt7/97YNnPvOZg2uuucb7Ai0LMwnisfnmm48ddNTY5YAiZCUgDX/nLV34dy7wjMND/p+ALYinkQsf2zaPIL6N5Y/b7QfrmfkL4/7Yxz6WHa4t00y/6fLWWdZ4W1XFvpyOZ1ptBvF8MTyuFQ+WneMr3r9Yb3H77ix7bnyTgnimF19YCbvZRjSTwziZNn9nemG++FvuQtlFEN/m/Enz0mYQz8une9/73qNjoiqadvK4kJaftoN4ariHn6GD9t0J2Km5Rph2zjnnjB7AzzvvvFGAzjWWB+z0PHLppZeOje+II45YUpuOacY17sqmKal9BvFS99oO4mlzPb52En7vueeew7bcqXV+4YUXjr0crxvE0zxtXNt99dVXHzz0oQ8dXqc33njj0ct2xhn+XRTEI27CBpTdbrvtBgcddNAoD3r84x8/vHcIgf0ll1zifYCWhZkF8Tz0x6FqigAstC0dQjH+m46HMumwKcZVNcBrYh5BfFvLH89PqusgHlWn38byTrusYf+bRm5fnVabQTx42122LPTjRQXlwt+K9uNJQTzi4yGH6X30ox8djYt/zyqIB+MKF+mcMH9hXEXzJ81Lm0E8x324IZ7G9ttv7w2utAy1HcSDh+RQ+y115plnDs8V/BKRh+dw/aV92qK2XuM24Lm3I5hLr8NVphmXl9Qeg3ipe20H8Xjuc587DMbT6ybaCuJBSM71O51G8PznP3/YNM4WW2wxMYgHleY22mij0mf4gHCfX/37/K7lYGZBPAjjqX1L7WFCLibDgUr4RyAYytGsBmEdtXfj4QPCU/pRq5VxhPEwDMNyAOaGaxs1sJkmwkuEIoSAoeykD9ayjkLZXFDc1vKHeQo1gPklAuNlO+XKt63q9NtY3mmWleZuKDsNhknHM622g3gQtvHih5dg8bIzv6GZHv5Lf5ajaD+etE8GHMfx8c00GYbhw/TC+i0K/atOK9bm/L30pS8d/o3580KuPmkziOfc97jHPW503FTFzbnHhbT8dBHEgwf4nXbaafQTcmqp77777oPrrrtu2P/iiy8e9uf8QXNXZe26c156whOeMDrfvPOd78wG65OmKakbBvFS97oI4sE9/C677DJYZ511htdOmql52tOeNvjOd74zdm//kY98ZJQNHH/88VNnQ3y4dY899hjc4x73GIbtm2222WD//fcf3g+EF/H77bffYMcddxx+oH1S0P+tb31r+KxO7Xp+zRu/jN9mm22G4+IXcTR/kxte6qOZBvGSinURxEtaHG0G8ZJWlq6CeEkrh0G81L2ugnhJ/WEQL/WEQbykMgbxkuoyiJfUlEG81D2DeGnxGcRLPWEQL6mMQbykugziJTVlEC91zyBeWnwG8VJPGMRLKmMQL6kug3hJTRnES90ziJcW34oI4vlAY9nXm6fBBz5z01g0rrPZM4iXVMYgXlJdBvGSmjKIl7pnEC8tvhURxJ977rlLwuG6+IJ0bhqLxnU2ewbxksoYxEuqyyBeUlMG8VL3DOKlxbcigvhrr712cNRRRw0OOeSQxj7wgQ9kp7FoXGezZxAvqYxBvKS6DOIlNdVlEI83vvGNg0MPPXTw3ve+d3DDDTdky0iLziBeWnwrIoiXlgODeEllDOIl1WUQL6mproN4SQbx0kpgEC/1hEG8pDIG8ZLqMoiX1JRBvNQ9g3hp8RnESz1hEC+pjEG8pLoM4iU1ZRAvdc8gXlp8BvFSTxjESypjEC+pLoN4SU0ZxEvdM4iXFp9BvNQTBvGSyhjES6rLIF5SUwbxUvcM4qXFZxAv9YRBvKQyBvGS6jKIl9SUQbzUPYN4afEZxEs9YRAvqYxBvKS6DOIlNWUQL3XPIF5afAbxUk8YxEsqYxAvqS6DeElNGcRL3TOIlxafQbzUEwbxksoYxEuqyyBeUlMG8VL3DOKlxVcYxK/6x+k88NOTMF5St/72t78NQzYeknP9Ja1snBs8R0iq469//evw/MHDfa6/JE0S7kN4Zsn1l9Tcf/3Xfw2PM3M4aXGF43zVffmvV9nw5hh+GMSfN+xjZ2dnZ2dnZ2dnZ2dnZ2dnZ2dnZ2dnZ9e4u+mmm/6y6j8b3RzDD4P4g+nBG29+fiapW6GWCW/Hcv0lrWzhzbnnCEnTovYN3ar7+2x/SZok3IfwzJLrL6k5mqShI4f793//92wZScsbxzn35Ktcs+pwX+/mGP7vbcRzoaU9WkndCj8b56DM9Ze0soUbc88RkqbFTT8dP3XP9ZekScJ9CM8suf6SmvuP//iPYUBHDveXv/wlW0bS8sZLtpuD+PzHWg3ipdkwiJdUxiBeUl0G8ZKaMoiXumcQLy0+g3ipJwziJZUxiJdUl0G8pKYM4qXuGcRLi88gXuoJg3hJZQziJdVlEC+pKYN4qXsG8dLiM4iXesIgXlIZg3hJdRnES2rKIF7qnkG8tPgM4qWeMIiXVMYgXlJdBvGSmjKIl7pnEC8tPoN4qScM4iWVMYiXVJdBvKSmDOKl7hnES4vPIF7qCYN4SWUM4iXVZRAvqSmDeKl7BvHS4jOIl3rCIF5SGYN4SXUZxEtqyiBe6p5BvLT4DOKlnjCIl1TGIF5SXQbxkpoyiJe6ZxAvLT6DeKknDOIllTGIl1SXQbykpgzipe4ZxEuLzyBe6gmDeEllDOIl1WUQL6kpg3ipewbx0uIziJd6wiBeUhmDeEl1GcRLasogXuqeQby0+AzipZ4wiJdUxiBeUl0G8ZKaMoiXumcQLy0+g3ipJwziJZUxiJdUl0G8pKYM4qXuzSKIv/TSSwef/OQnB3/4wx+y/Zu6+uqrB5///Oc7G7+03PUuiL/iiisGt73tbQfMwrbbbpstIy2ieQXx55xzzvB4w6GHHpotI2n+DOIl1WUQL6kpg3ipe10F8RdffPHgnve85+CWt7zl6NkfJ5100uDGG2/MDlPHhRdeOLjDHe4wHPe+++47+Nd//ddsOWkl610Qz5s5Jo+73/3u2TLSLPziF78YvOMd7xgcffTRI2ecccZwH82Vb2peQTzLFY65Zz7zmdkyLPd97nOf4cuxrpa/ib7Pn9SGtoP4r3zlK8PjpQpekufGIWl5MIiX1JRBvNS9LoL48847b3D7299+9Mwf22GHHQa/+tWvssPVQX4SprX33nsbxEsZBvFSgnDqCU94wmg/zCHw/dznPpcdvq4+B/Frr732xDLzlM7fn//852w5aTlrM4j/1Kc+taRGTBl+qfanP/0pOy5J/WcQL6kpg3ipe10E8dtss83gVre61fCenuCdX8R/6EMfGrzoRS8aHHnkkYPf/OY32eHqMIiXJjOIX4EImglfjz/++GGt71yZLs1y+tNOiwtH2P+qYH/NjaeO5RLEH3jggdky85TOn0G8FlGbQfxb3/pWg3hpBTGIl9SUQbzUvbaDeNqDv+Md7zi8n19zzTUHP/zhDzt9VjaIlyYziF+BHvrQh47WMW9Dc2W6NMvpTzutuCY8+x9tpr/nPe8Z7pcMz8Uk9A9lfvvb32bHNa0+B/EsO+uGkLuPTVT0ff6kNnQVxHMeO+qoo4bngiLcVPuCS1q+DOIlNWUQL3Wv7SD+LW95y+B2t7vd8J5/jz326DwYN4iXJjOIX4EM4osRRLPfEb7n+uOUU04ZjRP8O1duWn0O4iXNX1dB/E477WRtd2nBGcRLasogXupe20H8K1/5yuEvW7nnp9Jam83Q5BjES5MZxK9ABvHFfvSjH2X/nuLDoGG8z3/+87NlpmUQL6mMQbykugziJTVlEC91r+0gfv/99x+svvrqw3v+gw8+2CBe6oG5BfE050Ho/t3vfnfs73WCeMJThsM82jwvwsc8madJTZfQjnluXVQ17fIv9yB+muXtall5mxzGyzRyZabVdRAf1lu6P3YVxNNETNhObTQXw/ERxpfrP62250/qmkG8pLpmEcRfe+21ww9Bc/87TVNW3MsxHNfjrtuulVSfQbzUvb4E8T/5yU8Gn/70p4fX5s9+9rODP/zhD9lyqTpBfDytG264odZ9QBjHNddc43ONem/mQTyh35ZbbjkK/kDgTrDJjTgHX/z33DhA2TgMjTF+TgC54dpE8yVhmh/+8IeHfyPQ44Sz1lprjc0Tf8u9dNh2223HyjEcyzUpvJ92+flYaa5sip8tdRFKNp3+NMs7i2WNw+s+B/GsN9pO51iKl5397owzzhiWqRLE8/dQhi+s58qAl0qU3XDDDUflY0yXB/TcsMFTnvKUYVmOBS7CHAvptmd54gv0vvvuO+rXdP640cgNK82bQbykuroK4j//+c8PHvOYx4zOJwHX8Kc//emDb3/729kHaq7tr3rVq0YP67F73/vegze84Q2DP/7xj8Oyr3/96we3vvWth/323HPPSmEA0w7zdMEFF3iOk1rQRRAfwrdf//rX2f7SStNGEB+3C18mDcoJs8lS7n//+w9udatbLSm//vrrD84666zB7373u7HpxaoG8b/85S8Hhx122KjZnNjmm28+OPvss0ung6uvvnrwpCc9aXCXu9xl7D7kNre5zWCHHXYYXHzxxZVfIEizNLMgnhtuAkFGXYRwjVrL8b9z46Jmbxp053RdyzWeV/4fuRNJwPIw7ww7KSx+5CMfWRjG11l+mk/JlcnhZiieXhuaTH/a5Z3FssbTaKsWedtBPKFzGsCn2M/4IG34d9Gy7LzzzqMyRb8siAP9Scra1Y+nxcP7ox71qLFh4365YbjxiMcXHHPMMYNb3OIWY+MocvLJJ2fHIc2TQbykutoO4rlHPeKII7IP6jHu3774xS+OXbOpJLDppptOvCZfcsklw3MT/11ttdVGf6fmfS7cD3784x+Pav/hq1/9aml5SdW0HcTvtddeo3PIFlts0XmTGdJy0EYQH7cLX4aw+le/+tVwmEsvvXQYaFd5Xo6HS1UJ4gn8ySkmTYsKcuGlfOrMM88c3OlOdyodB4H8a1/72sJcTZqXmQXxaQhPLWKCO2q6xu1txyeMoiCe8DCU4f+pjc5NPTVtqeUbatxPqnnbVBzEx/PEfLNsiP8OTkZxYMm8hrJp7fiisLLO8vP/YTpxOMt2CX8PujhRNZn+tMs7i2WNxxtqljfVZhCfvrzg/8PyE7bH/eJjrkkQHy6CjI/xUI4XHWAdpcf5d77znex44mnFLwkYnvMGxwnDTxvEtzV/0rwYxEuqq+0g/mUve9lYCL/jjjsOjjzyyMF55503fPH9wAc+cHTdfe5znztWI+05z3nO6PzDcB/4wAeGTdIQmHNu2nXXXYf9P/rRj47OTfe6171G46OGfNGDOd70pjeNatBTu35SjTpJ1bQdxG+22WZjIZptSUvtBPHUFD/uuOOGz/5bb7316HpNgM5L9JCFvP/97x/8/ve/Hw7DtTm8xOY6fOKJJw5rlPOsfP755w+zhPilOL9cu/HGG5dMu0oQz6/bwriY1kUXXTS4/vrrhy/uuYZvs802w3n+yEc+kq3Rzi/q1lhjjdG8PO95zxv++u0Tn/jEcBie9QnhQ/+3ve1t3guoV2YSxFMzl1EGuYCZcJXwKy5H2JmWI4CN+xcFqYSxXb/5ioP4gIM+nS5/S8uBkDEux3Bx6EzAHPdHG8vfVbvpVU0z/abL28WycjEK42SfZR5z5abVZhAfN+XCPHIMpmW4+IYyAftqWg5VgvgHPOABw3EWrQ+2D2XCeIo+chtPK2C8ubJBlSC+zvxZg0590lUQz4s5zpXhYZhgPry4+5d/+Zfs8JKWlzaDeGqk3/GOdxxdL6ltlgvGeXBfd911By9/+ctH/bnWhgf9DTbYYPjT9HQ4EMrHtWNf8YpXjIIEwvsQHOQ8/OEPH53feFgvC+0lVddlEM/zikG8NL824g866KBhc6+XX355YQUdyoSAm1+25Z6rJwXxXPfXWWedYf+73vWuwwqEuWfuyy67bDhs2o/a9BtttNHw3MG8vPe9783eE5BZhPlgOn6DRn0ykyCeB3pGCQ7GXBmkYXwuiI9DUMab9p8lDu4wLygKMTm5pC8ZioLF9KVF2cds6y7/cgrimy5vF8saauCjaJvX0VYQz0Pu2muvXWm52Q9DubLlqRLEV8Gw4Yabl065i2EaxDNPky6aVYL4KqrMnzQvXQXxk1DLhJvX3HgkLQ9tBvG0xxrOH4973ONK21/lIT1+UKdN+VALblKgHrvyyivHmpu56qqrstfotFmaSc3YSKqu7SD+tNNOGx2vJ5xwQuXzgbTI+vKx1hxC8JAzEIL/7Gc/W1JmUhD/mc98ZrDmmmsO+9MEbVETN0Wo0R+ytVe/+tXZypgBWVD4hZxN1KhPOg/i2dkZXUDYnisXEISFsrkgnnbAQ39q8RXVbp2FeF5pLqPswI5ruk8Kb+MmMgii435tLP9yCuKbLm/by0oTJmF8fPCTlyy5cnW0FcRz8QvzyEVq0sWW/TGU7zqI55cLIejmhcakIJ5zQJWbhbaC+CrzJ81Lm0E8L305bjhHpuKmqwKORT+kJi1fbQXx3OuGB2jQfvs018o4KOcehYf6XLkcPh4XrtFFNd3jZmmmCfolTdZ2EC9pqT4H8dh4441H12J+OZvWnp8UxNNsTnjW4H6C5mCnuY/gl3YMy4uAH/zgB6XDnnrqqaOP1lKxyF/dqC86D+LTIDVXJhbXgM4F8SAADWUIy9Ja47MSB/GTwvU47JzUzAZBSCjLiSzt33T54/H3PYhHk+Vtc1mZbjwvuW3TRFtBfPwh4Cq/IohrxXcdxLMOw4Wb43tSEF+1/f22gvgq8yfNS5tB/CSf+tSnhsdVOB7wjGc8w7bkpWWqrSA+/nAqQXqdNlfjQJ3/5+fnVa63tFcbQvYHP/jB2ZA9bpbmzW9+s83SSC0yiJe61/cgnqZcw3W2ThCP+973vqNxbL755oOvfe1rlZ4xCPFDjfz73e9+Eytp0vb8He5wh2F52qIvag5PmrXOg/g4WCdEzZWJVQniqVUfygQc5Gnt8a7NIojPhZ5Nl3+5BfFNlretZeUkH/9SYdL2rqOtID5uH57/z5WJdRHEs77YPpRl/EE8b1WC+Kqh+rTDNJk/aV5mGcSDmq+77LLLWBh/zTXXZMtK6re2gng+eBZ/CLVOjfM4zA9o4oaPtpY9iNPMTAgTQDvy8XW6SW17SZMZxEvd60sQf+mllw7bX+cXaPHzMhUTw7NB3SCej8DG35rBHnvsMfzQatl9RTwcten5+Cx5TxFeGoR7Ftq0//nPf54drzRrnQfxBF2MDhwMuTIxwrFQviiIx3ve857sz+cJS9uuqVwkXrZZBvFosvxVxt+lOtOvu7xtLCthVDweXiiVNUNUV1tBPLXgw7xO2tdAmVC+aRBPcxeMI7TbVmYeQXwb8yfNy6yDePCrtrgt+QsvvNDjQlqG2griqZVe9aOpZQjj73KXu4y96MPd7na3wUknnVRYkz2u8c4HXONycbM0e+65p83SSC0ziJe6N88gnhfYxxxzzPA5OL7/L1I3iMeHPvShwZ3vfOcl9wEE5meffXb2F3dnnnnmaNzT2n777a0Rr97oPIiP29QmzMyViVUN4kGtVprhoFwYJqjzYc9pEUiG6c06iEfd5W8jnG6i7vTrLG8byxoH20x72qaAqmoriI+/RzDLID792DJY/6CmOdOZZ4145m+NNdYYlUOd+ZPmZR5BPELbijjuuOM8LqRlqK0g/vWvf31rbbBTqYHxbbLJJksexLfZZpvsB9zisJ0a+fGDehzSX3DBBZV+5i6pOoN4qXvzCuK/973vDbbYYouxAJ5mY3baaafB05/+9MGRRx45fF5uo0Z8QDB+yimnDK/nafCf+5BrHMTf9a53HRx66KHDeaqCj757X6C+6DyIj5sVIdjKlYlNE8THqDEdh67ggMuVbQuBZJjWPIL42DTLX2f8bWpj+lWXt+m04u3WZQiPtoL45z//+aN5JljOlYmx3kL5ukE8Nc3jkJvp5j5kO20b8W0F8W3OnzQv8wri+ShTOHZOPvlkjwtpGWoriH/f+943CsKpvV6njficf/7nfx623xo/iL/85S8f/OEPfxgrR6WM+GOxoXmauFmaDTbYwFpvUgcM4qXuzSuI51f/4RpMAE8zMOk1GG20EZ9DDXkqFMZN16XzS5nQNM1WW201vCeIxyEtF50H8QRgjA7Ulp3UpEfdID6Ig1OaLcmVaQuBZJjWvIP4oMryL0IQH0xa3rbWJc3isC/nyrWlrSA+Dta5mOXKxNoI4uMPxDLNoqBuXkE88xem23T+pHmZRxDPNTsOxj7+8Y97XEjLUFtBPMF304+1lqEt2tD0DfdeufE/+clPHp2XQlgf15R/7nOfmw0PJDVjEC91bx5B/Ne//vXRS+71119/+ExcdL/fVRAfHHDAAYPb3OY2w+HTdt2Zz9BcMTXibfNdy1XnQTxvqRhdQE3mXLmAn5eEsnWCeGq5xtPLlWkLgWSYTlGAGcShbpdBfJXlj5taoemgXJkutTn9Sctbd1qzDuHRVhDPxS/MOw/JZReotP37ukF81fU8ryB+9913H/U//fTTl/QPDOLVZ/MI4vloUhzE/+xnP8uWk9RvbQXx3NeHB3q8613vavWn3tyXxDXer7rqqiXX4vPPP39Jrfy4WRran/fn51L7DOKl7s0jiKfJl9AU5aMf/ejB//2//3dJmaDrIJ526tdZZ53h8Lj++utH/fi1253udKdRPyrx+uJdy1HnQTzikI7/z5VBHGyjThAfB/+0X5Ur05Y+BvFVln/apkva1ub0Jy1vnWnF24ogexYhPNoK4nmIXXvttUfLQLtruXKIlxVtBPFl04tr388riKdpjbR/wMdpDOLVV7MO4jm/xs3S0Eak4Za0PLUVxONJT3rS6CH8/ve/f2k78TRlw31D1XNHHMRzD5ZrYoYy1NgL5ybagw+19NtsLkfSuLaDeI7lN7/5zcP7b2q6eo8hzT+Ip5m43DdaQHM166233uh5uYsgnut+COK51qeVgGivPixPrh15aTmYSRBPLXhGGVDrPe7PRTiuCR/kgniCQkI/aq6m/RCPp0qzHE3MI4hvY/njMJTwmrAlV64r00y/6fJOu6zx+HgA5BsHuXJdaCuIBy8d4uXgbXHcn18SsL5CmaBoP54UxMfrmSaC0gs8x3h8DGCWQXwcsBfN37777jsaBwzi1TdtBfEcD9RmOe+887I34/jUpz412G677UbHDeeRb37zm9mykvqvzSA+bp4Gu+2221iNNVx77bWDffbZZxjY89AcaqwdccQRwwfnL33pS9lrbPwxWEL+olD9Oc95zqgJG8L3cK56xSteMfjjH/+YHUZSM20H8SeddNIoUOM4/vWvf50tJ60k8wjiL7300lHb6zQLw3NAei2NA/agThDP/FBJjueK3Ms3mqgL33bLvRTgo7IbbbTR6LrPNK677rrC5/aLLrpo2GQd9yk+26svZhLEg48/MNqA5j44aAhZCUjD36nBHP6dC+Lj8JD/JwAM4mnkwse2zSOIb2P543b7wXpm/sK4P/e5z2WHa8s002+6vNNMK65dPy22WTzdOtoM4q+44opR+2kBy87xFe9frLe4ffei/XhSEM/04o+hEnazjbgQM06mzd+ZXpgv/jarIL7N+ZPmpa0g/gUveMHo5hXUdOeceNRRRw2PpfR6jbPPPtvjQVrG2gzi8bSnPW2s2SrsuOOOg2c84xljL/EQt9lOgB6Go/yRRx45uq/bZZddxsZJTfeiGrI0PxO/DAjCx1tzw0hqpu0g/thjjx07jqetOSstonkE8TfeeONgm222Gb3gJownN6D5OV5wb7311qN+/GotXOPrBPF77rnn6LgnaOcFfbgPePCDHzw2D/yqLveruzisB+3Fc09x+OGHj8bFr/d4uRDm9ctf/nLhPYU0azML4qlxGoeqKQKw0LZ0CMX4bzoeyqTDphhXLixs2zyC+LaWP56fVNdBPKpOv43lrTotat3nylSR21en1WYQD5YnHEs59ONFBeXCBapoP54UxCM+HnKY3mc/+9nR/s2/ZxXEg/mLg4FUmL8wrqL5k+alrSD+ve997+jnp5MQyn/iE5/wWJCWubaDePDwHB6Yi/Bg/9Of/nQ0TNy+e5nXvva1E2u2xzXhwQN8WTM5kprpMoi/173uVfgrPWklmUcQj6uvvnrJdTVGMM6vWF75yleOQvA6QTzP6mnN+hTTesMb3jB8QRAPG2M6d77znUuf7wM++kqLAD7PqC9mFsSDMJ7atxyQhFxMhhCV8C9uh5tmNQjreAsXDx8QntKPWq2MI4yHYRiWgyw3XNuogc00UfaBShAChrKTPljLOgplc6F4W8sf5inUAOaXCIyX7ZQr37aq029jeatOi79Rblo0aROPp462g3gQsvPih5dg8bIzv6GZHv5Lf5ajaD+etE8GHMfx8c00GYbhw/SYNn/juM9dDKtOK9bm/B122GHDvxXNnzQvbQXx4LxJe5D8NDQcD/ExwbmQpms8BqTF0EUQD2qmv/SlLx2+xA612TfYYINhczQXXnhhtvbZlVdeOTjooIMGD3zgA0cP0NzX8eucF7/4xYNvf/vblc49hPrUpgvXf9qutbab1J22g3iO9/Bi7oUvfKHfd5BWaTuIJ/imCTmukzTTUvbCmvbZacLyIQ95yOjY3GqrrYZh/uc///nhC/IPfehDo+zg+9///pLr9Wc+85lhE3T0P/XUU7Nh+mWXXTbMcbbYYouxGvA77LDD4IADDhhcc801la7nfNj1Na95zfCD7fe9733HKgdsv/32w/nm13WeW9Q3Mw3iJRXrIoiXtDjaDOIlrSxdBfGSVo42g/gf//jHow8y8iKO4M2X/1L7Qbyk/jGIl3rCIF5SGYN4SXUZxEtqqs0gPv5QK7Vmw3ckpJXOIF5afAbxUk8YxEsqYxAvqS6DeElNtRXE0zToxhtvPGyaiiYwZtUsqrQcGMRLi88gXuoJg3hJZQziJdVlEC+pqbaC+NNOO21YG54maS6//HKbpJEiBvHS4lsRQTwfaORCz2I1xQfsctNYNK6z2TOIl1TGIF5SXQbxkppqK4jfZJNNhrXhzznnHJukkRIG8dLiWxFB/Hve855sQFwHX4jOTWPRuM5mzyBeUhmDeEl1GcRLaqqtIF5SMYN4afGtiCD+F7/4xeD4448fHH300Y198pOfzE5j0bjOZs8gXlIZg3hJdRnES2rKIF7qnkG8tPhsI17qCYN4SWUM4iXVZRAvqSmDeKl7BvHS4jOIl3rCIF5SGYN4SXUZxEtqyiBe6p5BvLT4DOKlnjCIl1TGIF5SXQbxkpoyiJe6ZxAvLT6DeKknDOIllTGIl1SXQbykpgzipe4ZxEuLzyBe6gmDeEllDOIl1WUQL6kpg3ipewbx0uIziJd6wiBeUhmDeEl1GcRLasogXuqeQby0+AzipZ4wiJdUxiBeUl0G8ZKaMoiXumcQLy0+g3ipJwziJZUxiJdUl0G8pKYM4qXuGcRLi88gXuoJg3hJZQziJdVlEC+pKYN4qXsG8dLiKwziV/3jdC604SQgqVs8HNPx31x/SSub5whJdf3tb38bnj+8r5dUl/chUvfCceb1Wlpc0XH+61U2vDmGHwbx5w372NnZ2dnZ2dnZ2dnZ2dnZ2dnZ2dnZ2dk17m666aa/rPrPRjfH8MMg/mB68NOzG2+8UVLH/vM//5NDbvjz8Vx/SStbaFrCc4Skaf35z38enj+oGZ/rL0mThPsQnll+97vfZctIaoZmK2666aZhDudxJi2mcJyvcs2qy+p6N8fwf28jngvtL37xC0kdCze3HJS5/pJWNs4NniMk1cFNPzf8/Bz2l7/8ZbaMJJXhhR7nEZ5ZPI9I3fj9738/PM74JsOvfvWrbBlJyxvHOc3TrDrW8x9rNYiXZsMgXlIZg3hJdRnES2rKIF7qnkG8tPgM4qWeMIiXVMYgXlJdBvGSmjKIl7pnEC8tPoN4qScM4iWVMYiXVJdBvKSmDOKl7hnES4vPIF7qCYN4SWUM4iXVZRAvqSmDeKl7BvHS4jOIl3rCIF5SGYN4SXUZxEtqyiBe6p5BvLT4DOKlnjCIl1TGIF5SXQbxkpoyiJe6ZxAvLT6DeKknDOIllTGIl1SXQbykpgzipe4ZxEuLzyBe6gmDeEllDOIl1WUQL6kpg3ipewbx0uIziJd6wiBeUhmDeEl1GcRLasogXuqeQby0+AzipZ4wiJdUxiBeUl0G8ZKaMoiXumcQLy0+g3ipJwziJZUxiJdUl0G8pKYM4qXuGcRLi88gXuoJg3hJZQziJdVlEC+pKYN4qXsG8dLiM4iXesIgXlIZg3hJdRnES2rKIF7qnkG8tPgM4qWeaDuI/8AHPjD42te+lu0nafkxiJdUl0G8pKYM4qXuGcRLi693QfwXv/jFwW1uc5sBs7DVVltly0iLqM0g/olPfOLwGMJZZ52VLaNunXbaaYNb3OIWw21w4IEHDn7+859ny2n+Tj/99GWxrQziJdVlEC+pKYN4qXsG8dLi610QTy1eJo+73vWu2TLSLFx11VXDMPWQQw4ZOeqoo4b7aK58U20G8TvssMPoOGIZcmXm4dOf/vTgYQ972GDTTTcdrstcmUVx6KGHjsLdpz71qQbxPRZvq6c85SkrOojnvHf00UcPz3eXXHJJtoyk5ccgXlJTBvFS9wzipcVnEC8lPvaxjw0e85jHjPbDHILktgP5lRDEv+AFLxjN15prrrnQ4bRB/PJhEP+/+GXAWmutNTpGWRc/+9nPsmUlLS8G8ZKaMoiXumcQLy0+g/gViFrJoXb3tddemy3TpVlOf9pp0YxL2P+qaDOMX2lBPMe3Qbz6YKUH8TQJ95CHPGS0DgKDeGlxtB3EX3bZZYPDDjtseH91xRVXzOS8OY9pSvo7g3ipe20H8Z/97GcHr3jFKwZHHnnk8JevXjul+TOIX4HmHdLOcvrTTovANJTn/9/1rneNPnhKTfmXvOQlo/5gH/3xj3+8ZDx1rIQgnhcjz3rWs4Zt2C962/UG8cvHSg7iaYbmtre97eh8ETOIlxZH20H8M57xjMEtb3nL4bniZS972eCGG27IlmvTPKYp6e8M4qXutR3EP/KRjxzc+ta3Hl47TzzxxMFPfvKTbDlJs2MQvwIZxBcjJKZZmhC+51DDPowT5557brbctFZCEL+SGMQvHysxiOcF4oMf/ODRcvORdGrK8LIxXhcG8dJiMIiX1JRBvNQ9g3hp8RnEr0AG8c0QYIVxgp9I58pNyyB+sRjELx8rMYj/4Ac/OAq09thjj8GVV145/Hu6LgzipcVgEC+pKYN4qXsG8dLim1sQT5hJ6J7WPK4TxNPWFcNhHm2eF6EpE+ZpUtMlNNeRWxdVTbv8yz2In2Z5u1pW9s0wXmrR58pMa1ZBPPsZ6479Lv77NGhTOmwD/j9Xpm1huzeZ7y6E+UqP8yZBfDgntHU+C+dbzkm5/jHKNZl2V/tGG+Orsq2qBvHzOAbaDOKZ54c//OGD97///WPLaxAvLSaDeElNGcRL3etrEM9wH/nIR4bPPtdcc81cKi5961vfGnz4wx8efOUrX/EZRcvazIN4mvXYfPPNhyeCgFCTjzgS/HBgx3/PjQOUjT/8GGP8s2h/miZJwjRpS5y/EW7Q/vWaa645Nk/8LffSYautthorx3As16Twftrlp9Z2rmyK5gm6CJWaTn+a5e16Wdk2DBvGc9xxx2XLTavrIL5of6MpnirhNmUIlNdff/2xcQSMe1LQyzETh9O5MjHKsyzp8RSmRzMaueG6xv742Mc+duyFTJin173udcMy0wbxbCeWNd63wDQ4f3z3u9/NDhc86UlPGpZnXYVpcVxsvfXWY+Oj/8EHH7xkfk4++eTBBhtsMFaWab/hDW+YOO/sG/vss0/pvvHRj340O2zA/LO+mL9wY8V5lbA4rEewfqjBPWl9BGXb6qSTThouW9UgPixnup6CKsvZRJtBfBGDeGkxtRHEn3LKKaOH+Uk+/vGPj86l66233ujvp556auF5hfP1JptsMjoH8XHWutOU1D6DeKl7bQTxxx9/fOE3oGKrr7764OKLLx57sX3++ecPbn/72w/7v+Utbxn89Kc/Hbz5zW8e3P3udx+9DMd55503uP7664fD8Py7xhprDP/Oh2HLsqwvf/nLw2dGrvVbbrnl4Hvf+162XED5xz/+8YONNtpobPrM+zbbbDN43/veN5oPabmYWRDPwUjgx6iLEJQQRsX/zo2LWo25YC7VRaAci+eV/0caosVYHuadYSeFxQ972MMKT2B1lp9a27kyOQS28fTa0GT60y5v18vKMPE4qoTYVXQZxBe9xAhYv2UhetoufpmyFxPxMcM8Fj0ws+9X3Y6En1/4whey4+kC2/tud7tbdl4Cjt+4re2yIJ7ggXA3HUeK80dZyPuQhzxkVPZHP/rRMHyOh0+FwJnpE3bnygS0HV40/3FwO8mxxx5bOJ54/glpnv3sZ5eOd9NNNx189atfzY4rqLKtdt111yXtoufmsa3lbMIgXlJdbQTx1EK/1a1uteScl3PmmWeOzh/xcNxvfOMb38ieI/fbb79Rud133334YF13mpLaZxAvda+NIH7//fcvzaVi73jHO8aCbEL3293udsN+1KA/5phjRiF7LK5df/TRR4+C/xe/+MXDZ9EwvhS16u94xzsOy975zncurVxFRbG111679BmMQP5Vr3pVafgv9c3Mgvg0hCeEI9wjICRQCX+PTxhFQTwhVyjD/1NrkjCJIJG3caHGfZVmGJqIQ8V4nphvlg3x30HN1jjUZF5DWQLFuGxRoFln+fn/MB3mLwzPdgl/D7o4iTWZ/rTL2+WyUj7eXxlnrlwdXQXx8TqI9zfmPT7e+P+ilwrh4kcZQmX2fV5IgG2QHsNFAWnVID6txR22HdPjJRb7QTzvPNiHNq67xEuhtdZaa2y6Yd5YL/ELo3j+yoL4eFmpHUDoHdZtWqOdcRYtZxxkp8dM2OZpKE1t9y222GL073B+IphOa30XbdNQM4F5I7hN94173eteo3GU7Rvx/DOesM+xz1KDn/liWeIbsUc/+tGF63XStor7xduqKIifdjn5yWQ6jqYM4iXV1UYQTw31ww47bHgevf/97z86V2y33XaDl7/85cO/B1dcccXoXMq9U1zTfe+9915Se40aeautttqwfxzWTzPNyy+/vPCaIKk5g3ipe20E8Z/4xCeGNdO5Nt7znvccPcfstttuwxfc8bWTIDy+dsZBPL9YJujm/wnPt9122+Ez/DrrrDMW4HcRxB9++OFjtfr33XffwTnnnDNsVvPd73738DklzBvOOOMM27/XsjGTIJ5wj1EGuYCZcDUOQ0CAmJYjgI37FwWphLHThqzTikPFgIAnnS5/S8shbVaD4eIAjQAq7o82lj8OaVmGXJkuTTP9psvb1rIS6jF8HGoTPtdt1z+nqyA+yB13HJvxcceLsbQMCGu5ULM9cv1Z93GgW9RufnzMMI+5B2bC5/CgzbylzSwFnDPii3PRvLfphS984Wh6zNsll1yypEyu5nRREB831cPxngvZWbeh2Rk8//nPz44rDrLB/BG0x2XYfvF2Cgg9LrjggrGy7NtxcF803bBvFN1EpfsGN1FV5h+5muXp+s1tA7Ct4v2o6rYqCuIJgHghULaclAnjKVrOJgziJdU17zbiL7zwwrEmZi666KLR+YXz5wMf+MDRueeEE07Ijs824qX5MoiXutdGEB+bto34OIgPaALmm9/8ZuGzTdtBPG3BUymM+wLC9rgZnBjZQphXxsWzdNvPX1IXZhLEUwuRUYIal7kySMP4XBBP7cPQn/Gm/WcpDhVB2JYrR4gbLxcIrnJl05cWuXblQ7+6y7+cgvimy1t3WYtenoBaywTNRaF0XV0G8WXLHu/H7KdlF84y8Xh4oTSpTC6I52E8rolNTeO4fyoN7busFc+8xbWo05A7lga8uSA+XdaiQBmcQ8LNDcuZu2FJg+w0WA/i8D+Mr2jatC8YynI+rntjc/rpp4/Gw76RG086/0Vt07PeNtxww1G5XFhPGX7GOGlcSLdVURBfRbycNHlTdzxFDOIl1dWHj7Xutddeo2Hud7/7Db7//e8P//7KV75y1PzMgx70oGF7tOmwMIiX5ssgXupe34J4Au6vf/3rpc81bQfxXOPD+I444ojS8ZEphHsIm6jRctF5EM+BwOgCwvZcuSAO6nJBPO2Ah/7U4mw7DJ1GPK80K1N20Mc13YsC+yBu5oMgOu7XxvLXDafbMs30my5v3WWNa76n2NY0j9JmbXh0FcRPqinOfhvXLC+qgT4Jv0oIAR61u3MX6/iYYR7TMnGwzguPSS8FmPc4zC4Lx5tKQ/9J8xa3+54L4uNAPLcuUnE77vwkL+0fB9m5j7EGrLMwXZSF1Bx/8TJPmsciVfaNqvOPuP34Aw88cEnZs88+e2y+f/jDH471T7GtQvkmQTzLGUIilrPtENsgXlJdfQjir7766sG66647HAY8XNOEzR3ucIfhvzlfl31w1SBemi+DeKl7fQvi+UVbrjZ6rO0gnqZv6E9t+LipuxwqjoU27PlF8g9+8INsOalPOg/i0yA1VyYW14DOBfEgoAtlCDvaDkSrikPFSeF6XMO6qDZ8EIeouVC06fLXDafbMu30myxv3WVlGzFskLbfDx4YCeRzw9fRVRBfZbnjF0VlH1stw3YJAV5R7en4mGEe0zLxR4yLmrdJxR+iTZt7ahM3GGH5+HXGpLA2DjRzQXxc2zwXJqfi8Pmkk05aUj4Osie9kIhfXuRC/YAXX2GaqBvKVtk30vkvWx9pWJyWjbdVWTvywaTxVcVyhpCI5TSIl9QXfQjiceqpp44CAe6jtt9++9F4XvSiF5WOxyBemi+DeKl7fQriH/vYxw6uu+66bLlYm0H8l7/85dGv0DfbbLOJFTHf/va3j17o77TTToPvfe972XJSn3QexMfBOiFqrkysShBPrfpQJqDJm7T2eNfiULGrID4XojZd/mlD2rZNO/0my9v2sjIv8TjRVhg/zyA+3j8n1aDnYsi6Z7zsy0EciNcN4uO20Kuu1zi8Z7+oG6JOErcPz7JOE+7mgniC9TA+fgXD+ijDOg3lczXGpwni47bfy4J4hGXApFC2bN8I42kjiI+bgMkF53H78EVt28emDeKrLqdBvKS+6EsQDz60Gs4zwV3ucpdRUzVFDOKl+TKIl7rXpyCeZ/MqNczbDOLf+973joJ1yoUPxBbhW2ShaZqNN944W8Ne6pvOg/g0eMuViRFuhPJFQTxo1oEa9qFsQKBVt2mNacXLNssgHk2Wv8r4u1Rn+nWXt6tlJfAN46VGF7/8yJWbxjyDeGqSh/JF+zLfL6AfyxvKFqkbxG+99daj/lW3F+XCA31unG2hRkCYt0lNp2BSEB83NTOtpjXi2w7i2Tdo3iVu4qjILIJ4tlXoP+22Kgvip11Og3hJfdGnIP7iiy8erLbaamPnzDPPPHPi+cYgXpovg3ipeys9iD/55JPHmsaZBh+VtUa8loPOg3g+tsjoQEiWKxOrGsSDWonUhqVcGCaYxYdc41Bx1kE86i7/tCFt2+pOv87ydrWstLMdN5lTtzmX2DyD+Lg2e65JGH4JkAbwTAMMG2oDh35so1yYybzEw6dleKMd+lfdXpQLwWGVJmPqioPzNoL4OHhmvkOt6knY1zgW4nGl45tlEM++kQbTuX0jjKdo32gziGdbhf5tBfHvfve7p15Og3hJfdGnID7+OGuwyy67TGyD1iBemi+DeKl7BvF/D+LpTxOu8bNwGSpH+uyi5aDzID5uVoRgIlcmNk0QH6PGNIFIGBYcjLmybYlDxXkE8bFplr/O+NvUxvSrLm+Xy0p4GsZdtT3zMvMM4uMa/ulLBWoBxwEkYeNVV101VgZttBEf1zqv2jQN2z0Mw7zlyrQhbkqG6UwT7uaC+Hh8Rx555MTxTTKPID7dN2gG5sorrxwrg7bbiJ8UxMft6bfRNA3LGT4CFMZZtJwhJDKIl9QnfQniL7vssrGPs/LfYFKteIN4ab4M4qXuLfcgnufesmEmBfHnn3/+6D5hyy23zFZAk5a7zoN4AgxGB264qUmcKxfUDeKDOPCm2ZJcmbbEoeK8g/igyvJ3GU5X0eb0Jy1vl8sah9dtBMDzDOJZd6E8LznifnEb7HzUNe4XayOIZz2G/lVfbsTtyrfxy4QicUDJepgm3GU/TctzwxL6VwmLJ5lHEB8vQ9k6mXUQ32Rb5cYXL+euu+5aOD6DeEl91Zcgfueddx4NR814vukRasevt956g29961vZ4WAQL82XQbzUveUYxPOMH4bZbbfdSr/5MimI/+xnPztqkjjXX1oEnQfxvMFidEEa8qXitqrrBPHU1I2nlyvTljhU7EsQX2X545rcNB2UK9OlNqc/aXm7XFY+PhzGPe12yukqiOeFQa5MEL8sQ9refdV12EYQHzdlxYu7SRdetn9cI/uCCy7IlmsD3yIIyzdp3njhGAfLuSCec2EYH/tSUbhb1TyC+PgXDLl264NZB/Fnn3322Lb6zne+M9Y/lm6r3PjiNucnLadBvKQ+ajuIP+CAA0YB+ote9KJKofipp546CgPud7/7DR/UeU7gQTucdwjbi5qoYTrTTlNSewzipe61HcTvtddeo++yvOpVr5pYMbZOEJ/WYi9rp/3www8fPb/ngnaGXXvttYf9QUVdr/daNJ0H8YiDPP4/VwZxSIc6QXwc/NOGd65MW/oYxFdZfmoahzJdNuVRpM3pT1reaabFuGhKKdcvFTe5BMLsXLlpdBXEo2yfi2v2b7XVVkv6x8dvWY3zuImYukE8wfoGG2wwKsOLubh/Km7epUrN5ya4aVlrrbVG0zv22GOz5cAHPUM55IJ4xhcv69vf/vax/tOadxDP+iha/3G4O4sgnnUb38CVzRvbKl7GSUH8NMtpEC+pL9oO4uN23h/1qEdNbN/96quvHqy77rrD8rjoootG55czzjhjFNDjQx/6UPY8O+00JbWr7SD+M5/5zDCU477vuuuuy5aRVpq2g3henIem4MhGfvjDH2bLBXWC+E9+8pOjWu4oCs+POeaYseY+i2q877333qOXB3z7q6yGvbQczSSIp+YnowzScI3QJK4JH+SCeAItgkFqHqb9EI+nrBmNNswjiG9j+ePAlPCaADpXrivTTL/p8k4zrRCuUzuZ9V5Uln7h51KYtO2r6jKID/OZLlO8fpD7xUpchiZs0o+vcPzG+zfqBvEg7I/HxfTTMohDeFxyySXZcm3iJ/RhetzQpCE2LxLij7oGrJ/csvILgBB6Mr6yAJ1tR3maCsqNax5BfBzaFu0badA9iyAebKt43RZtq3jeisaXLmd6A1u0nAbxkvqi7SA+Ds85x37pS18qPW9TIy/8YogH7DREj5usCbXl4/6YdpqS2tV2EL/OOusMj2ccdthhg5/+9KfZctJK0nYQH7ffzgtxcpWya2edIB5U6Asvy6kVzzU6PEfQHA7HePxLdhQF8d/4xjeGFdbCMwkVBy+//PLC+aZC2zOf+czBNddc432BloWZBPGIm/EAQSYHFCErAWn4O2/pwr9zQTxhayjL/xPSBfE0uEHnTVw6fJvmEcS3sfxpUySsZ+YvjPtjH/tYdri2TDP9pss7zbTSF0ZgW1CW2vT8P8PH/fl3Wbg/ja6C+Hjf47jjmOPYi18mgGFy46KpmviiSRDJ+qepFsYd1gnbIIyTv+UuglWCeELNe93rXqNyYLxh+zNcOu/py72usC7iWvFgWTlvxeucdcEHWMPNA+up6KZg6623Hg0H9mu2UdjPWTZubEL/onU7jyA+t28cfPDBtfaNtoP4om217777lm6r3PgYV1x7I15OAviwPtPl7HMQz3F273vfe7RMVZU1zSOpv9oO4qnhHn6GDtp3J2DnBSfny3POOWd0DjzvvPNGATrnSB6w0/PIpZdeOja+I444YkltOqYZ17grm6ak9rUZxH/9618fu7d66UtfahAvrdJ2EE+b6/G1k/B7zz33HLblTq3zCy+8cOzleN0gngpj8TG9+uqrDx760IcOr9Mbb7zx6GU74wz/LgriETdhA8put912g4MOOmj0nPz4xz9+eO8QnuOomOd9gJaDmQXxPPTHoWqKACO0Px3CG/6bjiduQ7oI40oD7C7MI4hva/nj+Ul1HcSj6vTbWN6q02IfJQDNlcspq6lfR1dBPA+7cRM9OQTzLH9uXIj39RyOVdZlmC7/zoV18XgoWxTo8XKjbLsFPNB32S58Dts8DrJTLDs3AZSrEsSz3nn4iAPvMkUfdp1HEI84FM9hfXz0ox8dzV/RvtF2EI9ptlW4OSwaX53l7HMQHy/zNLbffntvcKVlqO0gHjwkh9pvqTPPPHN4ruB6zsNzOH/SPm1RW69xG/Dc2xHUpefjKtOMy0tqT5dBPM8INjcltR/E47nPfe4wGI+vmUFbQTwIybl+p9MIeI7ll8VbbLHFxCAeVHraaKONSp/BAsJ9fvFc9gwp9cXMgngQONGsAqEfIQWT4UAlpIrb2A61jwkP4+EDAj/6USuRcYTxMAzDcgDmhmsbNbCZJsJLhCLcXISykz5YyzoKZXOheFvLH+Yp1ODklwiMtyyQbVPV6bexvNMsKwEV2yB9ccQwjIPh2mgTPtVmEB/2IV4WhL/R9A7HXlge1if/Zt3EwxZhmeNjl3XJNJhW+FUAtbf5G8d0OjyYVpg+5SZdKJnncD4I2y7MNy+0ZnWsp9hHmD77SLxPsfzhZoJ1Qi095n3S+QHs52FZGVdYT2E9M72y/Y6fHVIOBMK5MgHNtoSyV155ZbZMQPvolGNZi7YX88WNWm7fCOuDlw38reilxDTzz7oi8KZsWZvtYFvR3Eq6rQ488MDstiqr8V20nNSor7qcTbQZxHPue9zjHjec12lwc972cknqXhdBPHiA32mnnUY/IaeW+u677z5q7/niiy8e9uf8wYvOsqCN89ITnvCE0fnmne98ZzZYnzRNSd1oM4in2YoQxPNc95WvfMX7C2mVLoJ4cA+/yy67DJuE4tpJMzVPe9rTBt/5znfGjr2PfOQjw+cmrsPHH3/81NkQH27dY489Bve4xz2GYftmm2022H///Yf3A+FF/H777TfYcccdhx9onxT0f+tb3xo+U1K7nl/zxi/jt9lmm+G4+EUczd/khpf6aKZBvKRibQbxfRUH8bwk8IZbqq7NIF7SytJVEC9p5WgziKdCRGiyipDOZmmk/9VVEC+pPwzipZ5YCUE8tbo5vYBfFuTKSMoziJdUl0G8pKbaCuL53sPaa689fB7YZJNNSpumkFYag3hp8RnESz2xEoJ4mvXg9IJJ30qQNM4gXlJdBvGSmmoriI9rw/OtIr/tIP2dQby0+AzipZ5YxCCeNuX4lgKOO+64UQgPPpKZG0ZSnkG8pLoM4iU11UYQz7PBhhtuOGyj+ulPf7rtOksJg3hp8a2IIJ4P7PERGBarqZXSnIbrbPYWMYjnw8S5faLr9uHjJnCauuCCC7LTkGbNIF5SXQbxkppqI4j/p3/6p8Hqq68+uO9972uTNFKGQby0+FZEEF8UBtbBF6Rz01g0rrPZWylBPCH8tddemy3fln322WfJdOs69thjs9OQZs0gXlJdBvGSmmrzY62S8gzipcW3IoJ4Qr+jjjpqWEu2KZrYyE1j0bjOZm8Rg3icddZZw/3gtNNOG/7SIlembUwn3Q/ruuqqq7LTkGbNIF5SXQbxkpoyiJe6ZxAvLb4VEcRLy8GiBvGS2mEQL6kug3hJTRnES90ziJcWn0G81BMG8ZLKGMRLqssgXlJTBvFS9wzipcVnEC/1hEG8pDIG8ZLqMoiX1JRBvNQ9g3hp8RnESz1hEC+pjEG8pLoM4iU1ZRAvdc8gXlp8BvFSTxjESypjEC+pLoN4SU0ZxEvdM4iXFp9BvNQTBvGSyhjES6rLIF5SUwbxUvcM4qXFZxAv9YRBvKQyBvGS6jKIl9SUQbzUPYN4afEZxEs9YRAvqYxBvKS6DOIlNWUQL3XPIF5afAbxUk8YxEsqYxAvqS6DeElNGcRL3TOIlxZfYRC/6h+n88BPT8J4Sd3629/+NgzZeEjO9Ze0snFu8BwhqY6//vWvw/MHD/e5/pI0SbgP4Zkl119Sc//1X/81PM7M4aTFFY7zVfflv15lw5tj+GEQf96wj52dnZ2dnZ2dnZ2dnZ2dnZ2dnZ2dnZ1d4+6mm276y6r/bHRzDD8M4g+mB2+8+fmZpG6FWia8Hcv1l7SyhTfnniMkTYvaN3Sr7u+z/SVpknAfwjNLrr+k5miSho4c7t///d+zZSQtbxzn3JOvcs2qw329m2P4v7cRz4WW9mgldSv8bJyDMtdf0soWbsw9R0iaFjf9dPzUPddfkiYJ9yE8s+T6S2ruP/7jP4YBHTncX/7yl2wZScsbL9luDuLzH2s1iJdmwyBeUhmDeEl1GcRLasogXuqeQby0+AzipZ4wiJdUxiBeUl0G8ZKaMoiXumcQLy0+g3ipJwziJZUxiJdUl0G8pKYM4qXuGcRLi88gXuoJg3hJZQziJdVlEC+pKYN4qXsG8dLiM4iXesIgXlIZg3hJdRnES2rKIF7qnkG8tPgM4qWeMIiXVMYgXlJdBvGSmjKIl7pnEC8tPoN4qScM4iWVMYiXVJdBvKSmDOKl7hnES4vPIF7qCYN4SWUM4iXVZRAvqSmDeKl7BvHS4jOIl3rCIF5SGYN4SXUZxEtqyiBe6p5BvLT4DOKlnjCIl1TGIF5SXQbxkpoyiJe6ZxAvLT6DeKknDOIllTGIl1SXQbykpgzipe4ZxEuLzyBe6gmDeEllDOIl1WUQL6kpg3ipewbx0uIziJd6wiBeUhmDeEl1GcRLasogXuqeQby0+AzipZ4wiJdUxiBeUl0G8ZKaMoiXumcQLy0+g3ipJwziJZUxiJdUl0G8pKYM4qXuGcRLi88gXuoJg3hJZQziJdVlEC+pKYN4qXsG8dLiM4iXesIgXlIZg3hJdRnES2rKIF7qnkG8tPgM4qWeMIiXVMYgXlJdBvGSmjKIl7pnEC8tPoN4qScM4iWVMYiXVJdBvKSmDOKl7hnES4vPIF7qCYN4SWUM4iXVZRAvqSmDeKl7BvHS4jOIl3rCIF5SGYN4SXUZxEtqyiBe6p5BvLT4DOKlnjCIl1TGIF5SXQbxkpoyiJe6ZxAvLT6DeKknDOIllTGIl1SXQbykpgzipe4ZxEuLzyBe6gmDeEllDOIl1WUQL6kpg3ipewbx0uIziJd6wiBeUhmDeEl1GcRLasogXuqeQby0+AzipZ4wiJdUxiBeUl0G8ZKaMoiXumcQLy0+g3ipJwziJZUxiJdUl0G8pKYM4qXuGcRLi88gXuoJg3hJZQziJdVlEC+pKYN4qXsG8dLiM4iXesIgXlIZg3hJdRnES2rKIF7qnkG8tPgM4qWeMIiXVMYgXlJdBvGSmjKIl7pnEC8tPoN4qScM4iWVMYiXVJdBvKSmDOKl7hnES4vPIF7qCYN4SWUM4iXVZRAvqSmDeKl7BvHS4jOIl3rCIF5SGYN4SXUZxEtqyiBe6p5BvLT4DOKlnjCIl1TGIF5SXQbxkpoyiJe6ZxAvLT6DeKknDOIllTGIl1SXQbykpgzipe4ZxEuLb2ZB/Fe+8pXBKaecMrjiiiuy/X/0ox8NzjjjjMGHP/zhbH/Q75xzzhmWzfWXlrO2g/jPfe5zpcfLd7/73WF/js1c/9/+9reD97znPUP8f66MpNlpO4j/yEc+MjwH/PCHP8z25xzx1re+tfAcAcbBOeI3v/lNtr+kfmg7iL/22msHb3vb2wb/8i//Mvjzn/+8pD/3De973/uG55if/exnS/rjq1/96vAcc80112THIalf2g7iP/3pTw/e+MY3Dr797W9nzwE//vGPB29/+9sHn/nMZwZ/+tOflvTnPPP+979/8I53vGNwww03eB7RQmg7iP/6178+eMMb3jD42te+NvjjH/+4pP9PfvKTwVlnnTX44Ac/OPj973+/pD8uvvji4TX/e9/7XvZYlDSdmQTxPMQzyoCH+7TMlltuOep/4IEHLulPiB/6r7XWWkv6S8tdm0H8oYceOjpe7n73uy+5MeWFWOiPT37yk2P9se222476P/OZz1zSX9JstRnEn3rqqYNb3OIWw+Oba2p6U80LvNvd7najc8CFF1645Dyyxx57jMbx+Mc/3htzqcfaDOKvvPLKwWqrrTY6P3z0ox9dcvzvuOOOo/PD05/+9MEf/vCHsf5vetObBre+9a2H/W9729sOfvnLX471l9Q/bQbxBOi3uc1tRueRH/zgB2P3GYTsm2yyyeg8csIJJywJCQ8++ODRuWiLLbawUoAWQptBPCH8mmuuOTrOyOXS6/VOO+00uNWtbjXs/7znPW/w61//eqz/mWeeOXomYFxFL9clVTeTIJ7aMIwy4K11Wibu/8hHPnJJf4LAuIy14rVo2gziOYbi4yWt8coxGPc//vjjx/pjjTXWGPW/z33uYy0Tac7aDOKf9axnjR5uwQNw3P9Tn/rU4Ja3vOWo/3HHHbfkHLDxxhuP+hPm52rZSOqHNoP4888/fxSi49WvfvWS4z9+8L/3ve89+N3vfjfW/4ADDhg9+OOSSy7xPkPquTaD+GOPPXbshd4nPvGJsYCQX93EFQKe/exnD2688caxcfC8E84jvND713/917H+0nLUZhB/3nnnDW5/+9uPjqM3v/nNS67H66yzzqj/rrvuOvjVr3411n///fcfe2l2+eWXW/lGamgmQXwa+uWCeC6eoX8uiH/+858/Ng6DeC2aNoP4vffee+x4SYN4mnmK++eC+I022mjU3yBemr82g/gXvOAFpUH85z//+bEg/qijjlpyDrjvfe876r/hhht6Uy71WJtB/D//8z+PBWi5IP5ud7vb6ByTC+KPOOIIg3hpmWkziD/ppJMGq6+++ugckAbxNEszKYjffffdDeK1cNoM4vlF66Qg/h//8R9H1+tcEH/QQQcZxEstm0kQz0/LCNIf+tCHDgPCXHvThPP0f8ITnjBs2zrtT1MaDEsZmqlJ+0vLXZtBPMdQ2fHCMUgTUPTn1ya5F1sck7wUQ9m3GyTNRptBPNfUpzzlKcNzwMknn5wNwA477LDBzjvvPDxHcNOd9qd9+Ec96lHDcwQ1bgzRpP5qM4jnHuJpT3va8PzwjGc8Y3DdddctOf6pNf/oRz96eH74wAc+sOShneZtCNYYxyGHHLKk6RpJ/dNmEE/Qvt9++w3PAfw3DQdx2mmnDYPBvfbaa/hNifQ88oUvfGHw5Cc/eTgO2q/2PKJF0GYQz8srgnSOoz333HNw/fXXL7leE9Y/4hGPGDYzyQux9Di6+uqrh7+k3WWXXYZNROWyPEnTmdnHWiWVazOIl7R42gziJa0sbX+sVdLK02YQLymv7Y+1Suofg3ipJwziJZUxiJdUl0G8pKYM4qXuGcRLi88gXuoJg3hJZQziJdVlEC+pKYN4qXsG8dLiM4iXesIgXlIZg3hJdRnES2rKIF7qnkG8tPgM4qWeMIiXVMYgXlJdBvGSmjKIl7pnEC8tPoN4qScM4iWVMYiXVJdBvKSmDOKl7hnES4vPIF7qCYN4SWUM4iXVZRAvqSmDeKl7BvHS4jOIl3rCIF5SGYN4SXUZxEtqyiBe6p5BvLT4DOKlnjCIl1TGIF5SXQbxkpoyiJe6ZxAvLT6DeKknDOIllTGIl1SXQbykpgzipe4ZxEuLzyBe6gmDeEllDOIl1WUQL6kpg3ipewbx0uIziJd6wiBeUhmDeEl1GcRLasogXuqeQby0+AzipZ4wiJdUxiBeUl0G8ZKaMoiXumcQLy0+g3ipJwziJZUxiJdUl0G8pKYM4qXuGcRLi88gXuoJg3hJZQziJdVlEC+pKYN4qXsG8dLiM4iXesIgXlIZg3hJdRnES2rKIF7qnkG8tPgM4qWeMIiXVMYgXlJdBvGSmjKIl7pnEC8tPoN4qScM4iWVMYiXVJdBvKSmDOKl7hnES4vPIF7qCYN4SWUM4iXVZRAvqSmDeKl7BvHS4jOIl3rCIF5SGYN4SXUZxEtqyiBe6p5BvLT4DOKlnjCIl1TGIF5SXQbxkpoyiJe6ZxAvLT6DeKknDOIllTGIl1SXQbykpgzipe4ZxEuLzyBe6gmDeEllDOIl1WUQL6kpg3ipewbx0uIziJd6wiBeUhmDeEl1GcRLasogXuqeQby0+AzipZ4wiJdUxiBeUl0G8ZKaMoiXumcQLy0+g3ipJwziJZUxiJdUl0G8pKYM4qXuGcRLi88gXuoJg3hJZQziJdVlEC+pKYN4qXsG8dLiM4iXesIgXlIZg3hJdRnES2rKIF7qnkG8tPgM4qWeMIiXVMYgXlJdBvGSmjKIl7pnEC8tPoN4qScM4iWVMYiXVJdBvKSmDOKl7hnES4vPIF7qCYN4SWUM4iXVZRAvqSmDeKl7BvHS4jOIl3rCIF5SGYN4SXUZxEtqyiBe6p5BvLT4DOKlnjCIl1TGIF5SXQbxkpoyiJe6ZxAvLT6DeKknDOIllTGIl1SXQbykpgzipe4ZxEuLzyBe6gmDeEllDOIl1WUQL6kpg3ipewbx0uIziJd6wiBeUhmDeEl1GcRLasogXuqeQby0+AzipZ4wiJdUxiBeUl0G8ZKaMoiXumcQLy0+g3ipJwziJZUxiJdUl0G8pKYM4qXuGcRLi88gXuoJg3hJZQziJdVlEC+pKYN4qXsG8dLiM4iXesIgXlIZg3hJdRnES2rKIF7qnkG8tPgM4qWeMIiXVMYgXlJdBvGSmjKIl7pnEC8tPoN4qScM4iWVMYiXVJdBvKSmDOKl7hnES4vPIF7qCYN4SWUM4iXVZRAvqSmDeKl7BvHS4jOIl3rCIF5SGYN4SXUZxEtqyiBe6p5BvLT4DOKlnjCIl1TGIF5SXQbxkpoyiJe6ZxAvLT6DeKknDOIllTGIl1SXQbykpgzipe4ZxEuLzyBe6gmDeEllDOIl1WUQL6kpg3ipewbx0uIziJd6wiBeUhmDeEl1GcRLasogXuqeQby0+AzipZ4wiJdUxiBeUl0G8ZKaMoiXumcQLy0+g3ipJwziJZUxiJdUl0G8pKYM4qXuGcRLi88gXuoJg3hJZQziJdVlEC+pKYN4qXsG8dLiM4iXesIgXlIZg3hJdRnES2rKIF7qnkG8tPgM4qWeMIiXVMYgXlJdBvGSmjKIl7pnEC8tPoN4qScM4iWVMYiXVJdBvKSmDOKl7hnES4vPIF7qCYN4SWUM4iXVZRAvqSmDeKl7BvHS4isM4lf943QutOEkIKlbPBzT8d9cf0krm+cISXX97W9/G54/vK+XVJf3IVL3wnHm9VpaXNFx/utVNrw5hh8G8ecN+9jZ2dnZ2dnZ2dnZ2dnZ2dnZ2dnZ2dnZNe5uuummv6z6z0Y3x/DDIP5pq/7wpVX//diq/75GUrdWHWvvX/XfL61yQfx3SboZ5wbPEZKmtuoe442rXLbKpauckCsjSWVWnTvOv/k88oFVTsyVkdTMqmPrnFW+sMrFq7w2V0bS8nbzcf75Vf/Pc/3aN8fwdnZ2dnZ2dnZ2dnZ2dnZ2dnZ2dnZ2dnbddf/wD/8/Cl+8yt70tU4AAAAASUVORK5CYII=;" vertex="1" parent="1">
          <mxGeometry x="-980" y="259" width="386.25" height="89" as="geometry" />
        </mxCell>
        <mxCell id="Q4L-rpPanq5J2Qk0i0yB-44" value="&lt;span style=&quot;color: rgb(0, 0, 0); font-family: Helvetica; font-size: 20px; font-style: normal; font-variant-ligatures: normal; font-variant-caps: normal; font-weight: 400; letter-spacing: normal; orphans: 2; text-align: center; text-indent: 0px; text-transform: none; widows: 2; word-spacing: 0px; -webkit-text-stroke-width: 0px; background-color: rgb(251, 251, 251); text-decoration-thickness: initial; text-decoration-style: initial; text-decoration-color: initial; float: none; display: inline !important;&quot;&gt;AWS&lt;/span&gt;" style="text;whiteSpace=wrap;html=1;" vertex="1" parent="1">
          <mxGeometry x="-1343" y="224" width="80" height="50" as="geometry" />
        </mxCell>
      </root>
    </mxGraphModel>
  </diagram>
</mxfile>
